<?xml version="1.0" encoding="UTF-8"?>
<svg width="2077px" height="394px" viewBox="0 0 2077 394" version="1.1" xmlns="http://www.w3.org/2000/svg" xmlns:xlink="http://www.w3.org/1999/xlink">
    <!-- Generator: Sketch 61.2 (89653) - https://sketch.com -->
    <title>Group</title>
    <desc>Created with Sketch.</desc>
    <defs>
        <polygon id="path-1" points="0.847786546 0.170851232 398.000564 0.170851232 398.000564 319.252174 0.847786546 319.252174"></polygon>
    </defs>
    <g id="Page-1" stroke="none" stroke-width="1" fill="none" fill-rule="evenodd">
        <g id="Group">
            <g id="elespanol-logo" fill="#191A1E" fill-rule="nonzero">
                <path d="M2071.24177,386.380792 L2076.84796,315.843838 L2074.26049,315.843838 L2053.99192,351.336952 C2042.77953,371.105274 2035.87959,374.250234 2017.76725,374.250234 L1993.61747,374.250234 L1993.61747,130.740474 C1993.61747,92.1024007 1998.36118,84.9139186 2014.74853,78.1747176 L2014.74853,76.377601 L1933.24302,76.377601 L1933.24302,78.1747176 C1949.63037,84.9139186 1954.37408,92.1024007 1954.37408,130.740474 L1954.37408,332.017911 C1954.37408,370.655993 1949.63037,377.844475 1933.24302,384.583676 L1933.24302,386.380792 L2071.24177,386.380792 Z" id="EL-ESPAÑOL"></path>
                <path d="M1801.76089,393.119993 C1750.87386,393.119993 1715.08043,355.380474 1715.08043,236.770558 C1715.08043,114.11712 1753.46133,70.0876811 1806.93584,70.0876811 C1853.51042,70.0876811 1892.75381,101.537281 1892.75381,226.437116 C1892.75381,345.496313 1857.82288,393.119993 1801.76089,393.119993 Z M1803.48588,383.235832 C1837.12307,383.235832 1847.90422,343.699196 1847.90422,230.929919 C1847.90422,116.363518 1836.69183,79.971842 1804.34837,79.971842 C1771.14242,79.971842 1759.49878,119.059197 1759.49878,233.625598 C1759.49878,346.394875 1770.71117,383.235832 1803.48588,383.235832 Z" id="Combined-Shape"></path>
                <path d="M1634.91658,0 L1638.36655,0.898562231 C1635.77907,10.7827232 1627.15415,40.4351982 1603.43562,40.4351982 C1585.32328,40.4351982 1571.5234,23.362563 1558.15478,23.362563 C1549.09861,23.362563 1540.47369,31.8988806 1537.02372,40.8844793 L1533.57375,39.9859171 C1536.16123,30.1017561 1544.78615,0.449281116 1568.50468,0.449281116 C1585.75453,0.449281116 1599.98564,16.1740809 1614.21677,16.1740809 C1623.27293,16.1740809 1631.46661,8.98559873 1634.91658,0 Z M1659.06636,390.873596 L1639.22904,390.873596 L1529.69253,141.073916 L1529.69253,309.553918 C1529.69253,370.655993 1537.45496,377.844475 1553.84232,384.583676 L1553.84232,386.380792 L1490.88039,386.380792 L1490.88039,384.583676 C1507.26774,377.844475 1514.16768,370.655993 1514.16768,309.553918 L1514.16768,130.740474 C1514.16768,92.1024007 1506.40525,84.9139186 1490.0179,78.1747176 L1490.0179,76.377601 L1545.21739,76.377601 L1643.5415,304.611834 L1643.5415,153.204475 C1643.5415,92.1024007 1635.77907,84.9139186 1619.39172,78.1747176 L1619.39172,76.377601 L1681.9224,76.377601 L1681.9224,78.1747176 C1665.53505,84.9139186 1659.06636,92.1024007 1659.06636,153.204475 L1659.06636,390.873596 Z" id="Combined-Shape"></path>
                <path d="M1468.07226,386.380792 L1388.29175,386.380792 L1388.29175,384.583676 C1410.71654,377.844475 1407.26657,354.481912 1391.31047,274.510078 L1328.34854,274.510078 C1311.52994,354.931193 1308.07998,375.598077 1333.09225,384.583676 L1333.09225,386.380792 L1272.71779,386.380792 L1272.71779,384.583676 C1286.51767,375.148796 1292.55512,360.771832 1313.68617,265.524479 L1356.37954,73.232641 L1387.8605,73.232641 L1428.39763,265.075198 C1446.94121,354.481912 1452.97866,374.699515 1468.07226,384.583676 L1468.07226,386.380792 Z M1388.29175,260.582394 L1360.69199,120.40704 L1331.36726,260.582394 L1388.29175,260.582394 Z" id="Combined-Shape"></path>
                <path d="M1210.23504,384.583676 L1210.23504,386.380792 L1124.41707,386.380792 L1124.41707,384.583676 C1140.80441,377.844475 1145.54812,370.655993 1145.54812,332.017911 L1145.54812,130.740474 C1145.54812,92.1024007 1140.80441,84.9139186 1124.41707,78.1747176 L1124.41707,76.377601 L1203.3351,76.377601 C1259.82833,76.377601 1283.54687,96.5951961 1283.54687,156.798716 C1283.54687,228.234233 1249.04718,246.654719 1200.31637,246.654719 L1184.79152,246.654719 L1184.79152,332.017911 C1184.79152,370.655993 1190.39771,377.844475 1210.23504,384.583676 Z M1184.79152,88.5081596 L1184.79152,234.973434 L1196.00392,234.973434 C1232.65983,234.973434 1243.87223,206.668794 1243.87223,158.595841 C1243.87223,112.769277 1233.95357,88.5081596 1199.02264,88.5081596 L1184.79152,88.5081596 Z" id="Combined-Shape"></path>
                <path d="M975.685091,381.438716 C986.466243,388.177917 1012.34101,393.119993 1027.86587,393.119993 C1068.83424,393.119993 1096.00275,359.423996 1096.00275,303.263998 C1096.00275,199.031039 1001.9911,201.277437 1001.9911,126.247679 C1001.9911,101.537281 1014.49724,84.9139186 1035.19705,84.9139186 C1060.20932,84.9139186 1073.1467,109.175036 1083.49661,142.871041 L1086.51533,142.871041 L1086.51533,81.7689586 C1075.30293,75.9283198 1061.50306,70.0876811 1044.68446,70.0876811 C1006.30356,70.0876811 975.685091,100.638718 975.685091,155.450881 C975.685091,251.147515 1069.26549,252.046077 1069.26549,331.119357 C1069.26549,363.916792 1053.30938,380.540154 1032.17833,380.540154 C1008.45979,380.540154 990.778704,360.322551 978.703814,309.553918 L975.685091,309.553918 L975.685091,381.438716 Z" id="Path"></path>
                <path d="M944.683293,386.380792 L950.289491,315.843838 L947.702015,315.843838 L927.43345,351.336952 C916.221052,371.105274 909.321114,374.250234 891.20878,374.250234 L860.159063,374.250234 L860.159063,233.176317 L889.915042,233.176317 C905.4399,233.176317 911.908591,239.466237 923.983481,261.480957 L925.708465,261.480957 L925.708465,192.291838 L923.983481,192.291838 C910.614853,214.306558 905.4399,221.045759 889.915042,221.045759 L860.159063,221.045759 L860.159063,88.5081596 L888.190057,88.5081596 C901.989931,88.5081596 910.614853,93.0009551 920.533512,111.870715 L935.627125,139.726081 L937.352109,139.726081 L937.352109,76.377601 L799.784613,76.377601 L799.784613,78.1747176 C816.171963,84.9139186 820.91567,92.1024007 820.91567,130.740474 L820.91567,332.017911 C820.91567,370.655993 816.171963,377.844475 799.784613,384.583676 L799.784613,386.380792 L944.683293,386.380792 Z" id="Path"></path>
                <path d="M318.642928,386.380792 L324.249126,315.843838 L321.66165,315.843838 L301.393085,351.336952 C290.180687,371.105274 283.28075,374.250234 265.168415,374.250234 L241.018635,374.250234 L241.018635,130.740474 C241.018635,92.1024007 245.762342,84.9139186 262.149692,78.1747176 L262.149692,76.377601 L180.644185,76.377601 L180.644185,78.1747176 C197.031536,84.9139186 201.775243,92.1024007 201.775243,130.740474 L201.775243,332.017911 C201.775243,370.655993 197.031536,377.844475 180.644185,384.583676 L180.644185,386.380792 L318.642928,386.380792 Z" id="Path"></path>
                <path d="M144.898679,386.380792 L150.504879,315.843838 L147.917402,315.843838 L127.648836,351.336952 C116.436439,371.105274 109.536502,374.250234 91.4241665,374.250234 L60.3744495,374.250234 L60.3744495,233.176317 L90.130429,233.176317 C105.655287,233.176317 112.123978,239.466237 124.198868,261.480957 L125.923853,261.480957 L125.923853,192.291838 L124.198868,192.291838 C110.83024,214.306558 105.655287,221.045759 90.130429,221.045759 L60.3744495,221.045759 L60.3744495,88.5081596 L88.4054445,88.5081596 C102.205319,88.5081596 110.83024,93.0009551 120.7489,111.870715 L135.842512,139.726081 L137.567496,139.726081 L137.567496,76.377601 L0,76.377601 L0,78.1747176 C16.3873508,84.9139186 21.1310574,92.1024007 21.1310574,130.740474 L21.1310574,332.017911 C21.1310574,370.655993 16.3873508,377.844475 0,384.583676 L0,386.380792 L144.898679,386.380792 Z" id="Path"></path>
            </g>
            <g id="EE-T-leon-849_3" transform="translate(364.000000, 67.000000)">
                <g id="Group-8">
                    <mask id="mask-2" fill="white">
                        <use xlink:href="#path-1"></use>
                    </mask>
                    <g id="Clip-2"></g>
                    <path d="M252.543031,105.219967 C241.514819,93.2851007 248.191091,72.3427625 224.947775,67.8713089 C208.993408,64.8024218 205.699231,77.2359477 193.129707,77.5876197 C179.050466,77.9818769 164.598948,58.4476001 150.411184,80.123504 C157.690518,81.9409335 161.543798,83.8435336 165.358614,89.8233301 C158.619152,88.5718726 149.735314,87.2448606 143.476653,89.6282621 C138.648032,91.4676712 137.237223,95.7344408 135.977524,100.157814 C143.767881,102.060414 147.630777,100.420194 153.800147,100.624879 C158.447437,100.778735 163.16616,101.399656 167.356001,103.54403 C177.084675,108.527881 178.040783,121.884546 176.051639,131.452495 C175.046077,136.289358 172.359084,140.399523 171.497762,145.339415 C176.955546,146.836768 181.429747,145.641633 186.96858,145.387495 C192.636542,145.13061 198.374564,145.100388 204.020547,145.751531 C206.223992,145.9988 219.704291,147.688474 220.126023,150.298539 C221.376106,158.046311 215.947171,159.296395 210.3685,162.716954 C202.278672,167.689815 190.053951,175.904651 196.712365,187.210354 C199.862301,192.554119 206.042661,194.985601 211.606221,196.963755 C216.280985,198.625955 227.4397,202.21136 233.937388,194.518537 C231.064943,189.751733 224.237562,183.171622 215.786446,180.698929 C222.575363,177.099786 234.507481,181.605583 239.717996,186.221277 C244.645524,177.044837 232.511468,169.4207 226.445128,169.022322 C230.68717,166.110038 240.7318,166.480942 245.479371,170.821893 C283.387132,162.840588 315.459338,191.180401 333.515493,236.499373 C310.979642,207.472702 283.012107,185.479469 256.069367,188.59781 C293.652931,206.098983 310.979642,237.213707 313.608939,259.756427 C306.548026,249.522224 286.947811,216.429346 257.418358,211.951024 C305.072652,270.155476 325.282798,365.079423 320.347028,433.119699 C319.386799,446.376082 305.49301,461.899101 293.352086,466.404898 C318.455418,429.135915 306.821396,349.322872 304.51767,338.250701 C287.120899,254.701143 250.630815,229.630781 238.965198,223.394099 C258.748118,250.37393 270.813487,269.702149 274.835735,332.192602 C264.174306,306.284272 253.518371,272.847964 229.306583,244.920267 C236.122974,265.30625 251.052547,308.125055 247.752875,351.122443 C239.958396,324.6921 226.244565,293.027889 215.730124,276.845485 C214.271235,323.840394 216.987076,400.232879 224.718364,459.302773 C227.167704,478.026556 230.810805,501.132501 228.240578,504.55306 C224.960138,508.921485 220.856841,513.619602 215.261686,516.421988 C177.992703,506.228996 125.985095,480.293192 88.7380925,445.551851 C17.2525304,378.885293 -18.0602768,288.1924 11.0859081,190.328695 C21.5715013,155.120291 38.2745442,125.196581 59.2896895,95.3855163 C60.9752421,92.9952461 66.797061,86.3024897 68.2490814,85.1059809 C62.7899242,76.0009748 63.0660416,66.2324627 66.123939,59.2388619 C73.2521641,42.9383185 94.2906626,39.6647473 104.11275,39.2347735 C108.343803,31.3139127 121.987575,20.5206066 132.346786,16.3115332 C146.019406,6.46884031 165.365483,0.181330839 181.598714,0.181330839 C186.702078,0.181330839 193.878384,-0.0233532141 199.377379,1.37646592 C207.115535,-1.06737926 212.415341,0.997319615 213.853624,4.47282737 C185.527549,12.3744561 191.637849,47.6062139 196.525539,53.919824 C198.766074,-1.27068959 235.423752,-1.47399993 242.755287,14.4103068 C236.238367,10.9485363 223.001215,5.65422526 214.747915,18.5094828 C211.552646,23.4864648 206.214376,40.7403689 212.718933,52.5598427 C217.822297,37.4819087 222.241549,31.083128 225.240377,28.2601365 C242.258001,12.2370842 257.279613,20.6291304 257.300218,24.9302429 C241.191996,15.9447504 226.054992,37.2195285 226.054992,55.9570485 C231.499038,46.5882885 245.479371,35.5902983 252.887835,35.6232676 C250.356072,37.9077614 239.496827,46.5882885 239.571008,59.5616858 C248.419128,52.6601241 255.72319,45.5291515 265.564509,42.6099998 C265.972503,38.4421379 262.840425,35.1562033 260.266077,32.1312752 C266.175814,31.9252174 271.266814,34.9803673 275.951194,40.6826727 C320.143718,38.0355172 324.154976,74.6931948 318.107867,90.7808119 C326.743061,95.6685023 341.080561,108.328692 345.113798,119.057433 C333.389111,108.328692 303.03268,85.5812875 272.728451,89.4812742 C263.45173,90.6750356 256.400433,97.5024164 252.386427,105.373823 L252.543031,105.219967 Z M192.655774,276.72185 C165.773477,369.942386 185.636073,440.249298 206.137447,494.593601 C213.937421,442.282401 205.799513,347.221083 192.655774,276.72185 Z M176.771468,270.155476 C122.395569,369.942386 149.277866,454.714554 181.604209,488.411868 C161.104208,400.136718 163.611244,355.889246 176.771468,270.155476 Z M103.478092,425.055972 C101.71149,379.846896 105.89721,306.188112 141.947704,245.414806 C85.8367991,296.14623 79.5300576,374.819087 103.478092,425.055972 Z M147.445325,469.166072 C121.233403,399.916923 132.768517,342.01469 148.666561,282.82116 C113.605144,328.826992 104.159456,419.657258 147.445325,469.166072 Z M109.663946,245.497229 C62.3709401,276.048728 48.5595745,345.943524 71.9965854,395.713345 C73.2521641,343.457094 77.4378843,297.808429 109.663946,245.497229 Z M42.281681,335.901642 C47.9661281,293.041626 70.3233963,245.085114 101.193598,209.121164 C55.6740625,228.765338 29.1338215,282.999744 42.281681,335.901642 Z M166.338076,171.742284 C161.822663,172.511567 143.899758,175.42385 144.236319,186.605918 C151.118649,184.311808 162.751297,180.8363 167.354627,182.457288 C159.812913,186.166328 154.580419,190.713336 151.724458,195.054287 C156.763258,198.763327 179.304604,200.095834 185.549529,185.397046 C190.026477,174.860625 183.548021,163.472499 172.339852,161.12344 C167.432929,160.106889 149.602063,159.639824 145.100388,170.148771 C151.591208,168.129405 163.657951,169.187168 166.338076,171.742284 Z M25.1761386,273.383714 C42.281681,224.149644 70.5129695,202.802059 88.7380925,188.584073 C50.8426946,194.106421 19.6826384,224.987612 25.1761386,273.383714 Z M92.922439,159.70851 C70.7410068,154.14495 30.5638624,168.500309 28.0444627,206.153932 C51.489716,180.630243 68.6488335,168.074456 92.922439,159.70851 Z M135.066748,115.819579 C129.957889,120.843267 128.661099,130.580184 131.547281,137.469382 C133.546042,142.240306 138.378783,143.962949 143.233505,144.207471 C155.646425,144.833887 166.809261,134.238396 161.356972,121.504026 C158.141098,117.161702 147.768149,128.317669 135.066748,115.819579 Z M261.369173,74.2206357 C276.561125,43.941133 309.868303,55.5751548 306.609843,82.2527676 C306.13591,86.1335223 308.270669,85.788719 312.621235,87.6349966 C316.475889,82.6387825 315.624184,71.7822854 313.698231,65.9357395 C306.266414,43.3710398 264.901003,39.168835 261.369173,74.2206357 Z M212.992303,215.28916 C205.541254,198.186365 182.094627,200.562898 173.194305,214.574826 C173.919628,217.651956 175.956852,219.286681 178.241346,220.165861 C180.766241,218.228917 183.005402,215.138051 187.022155,214.121499 C187.022155,217.500847 187.022155,220.440604 187.022155,223.14683 C190.970222,225.042561 193.545944,222.89956 195.83868,220.838983 C197.712432,222.26765 199.213906,223.407836 200.573888,224.451862 C206.402575,222.844612 211.90157,218.572347 212.992303,215.28916 Z M127.283259,63.0839 C92.6614325,30.907292 61.9107444,63.4918943 76.8746598,78.0752897 C75.5545163,69.8055045 81.8420258,58.7388284 92.6655537,57.4640177 C103.370942,56.2029441 109.771096,61.12223 117.304568,68.1749006 C120.373455,66.1486659 121.987575,64.9164404 127.283259,63.0839 Z M194.574859,6.44960826 C171.475783,8.91268549 166.996087,34.3690626 178.267447,48.0403089 C179.826617,29.2780619 184.917618,16.244221 194.574859,6.44960826 Z M47.893321,151.397513 C56.0930466,144.945158 73.2521641,136.657514 92.922439,132.500642 C73.2521641,118.689277 53.5818892,133.337237 47.893321,151.397513 Z M168.147263,12.3414868 C153.350941,19.7059916 147.419225,41.4588237 162.311707,51.6792892 C160.275856,31.1106024 165.112719,20.0027148 168.147263,12.3414868 Z M149.889171,18.6880662 C138.389773,24.1032644 135.966534,44.0249298 147.240641,51.0679844 C146.301018,42.5742831 144.530295,29.8934878 149.889171,18.6880662 Z M131.762955,27.0375271 C119.756656,36.8719777 124.38334,47.8850787 135.021416,51.6792892 C130.133725,42.5152132 129.940031,35.6507419 131.762955,27.0375271 Z M113.026809,71.8413553 C109.418051,66.0689902 92.7823197,58.9091695 87.3671215,69.1941998 C98.7717323,65.1211245 103.659423,72.2493496 107.707771,77.0999496 C109.853519,74.9610699 111.480002,73.574988 113.026809,71.8413553 Z M285.515022,67.7504216 C294.279346,70.8234299 293.05811,76.766136 293.464731,78.7648964 C293.580123,79.3336158 299.206874,81.2169839 300.184962,81.616736 C302.099925,72.5240933 293.464731,64.7131301 285.515022,67.7504216 Z M147.368397,109.494979 C146.302392,113.13639 148.134932,116.585895 151.099417,117.244771 C153.820753,117.850873 157.297634,115.976594 157.858111,112.434335 C158.065543,111.797847 156.910246,110.980649 155.705495,110.731171 C153.855096,110.830323 154.601025,114.572484 151.615935,114.038346 C148.975648,112.968472 151.78765,109.762048 147.368397,109.494979 L147.368397,109.494979 Z" id="Fill-1" fill="#000000" mask="url(#mask-2)"></path>
                    <path d="M394.004439,289.208951 C397.64754,316.683321 384.380167,337.220412 381.014557,342.509228 C387.446307,281.873295 366.376213,240.180939 338.120198,195.905992 C366.376213,218.338815 388.554898,254.206604 394.004439,289.208951" id="Fill-3" fill="#000000" mask="url(#mask-2)"></path>
                    <path d="M324.358286,282.82116 C354.629546,324.225035 347.769196,397.512916 346.872158,403.667175 C345.113798,415.20641 333.585553,426.883017 329.368237,428.943595 C336.552785,400.342776 339.551612,332.714615 324.358286,282.82116" id="Fill-4" fill="#000000" mask="url(#mask-2)"></path>
                    <path d="M253.012843,108.698222 C268.90814,99.2841293 294.005976,102.060414 305.586423,112.826246 C296.128371,109.787581 278.084579,111.817937 270.270868,116.249553 C266.623646,118.316999 262.929717,120.843267 261.531271,125.081189 C282.027151,122.446397 304.729223,133.209481 313.698231,145.971326 C280.215216,134.054318 260.366358,138.713971 254.657184,139.84042 C252.28752,138.440601 256.047387,132.914131 256.008923,125.743321 C255.949853,114.82638 253.012843,108.698222 253.012843,108.698222" id="Fill-5" fill="#000000" mask="url(#mask-2)"></path>
                    <path d="M347.192234,257.173836 C377.246447,303.440675 376.36452,350.998808 373.089575,362.208351 C369.946507,372.964567 363.72631,386.894072 354.312217,395.713345 C354.702353,394.476998 369.883316,341.13551 347.192234,257.173836" id="Fill-6" fill="#000000" mask="url(#mask-2)"></path>
                    <path d="M326.743061,154.14495 C366.376213,159.007914 411.27208,224.149644 394.320394,253.904386 C385.737401,218.599821 360.925298,171.440066 326.743061,154.14495" id="Fill-7" fill="#000000" mask="url(#mask-2)"></path>
                </g>
                <path d="M241.052092,168.923138 C239.293046,165.4542 238.946743,160.930827 239.353902,157.095129 C239.83496,152.571755 241.941758,149.270916 246.508903,147.589932 C274.4363,137.901356 311.156031,165.607016 322.400018,187.20001 C310.16059,177.144674 260.821803,152.113306 241.052092,168.923138" id="Fill-9" fill="#000000"></path>
                <path d="M221.911609,135.199956 C219.240821,135.213444 218.559728,132.559658 218.402553,130.01419 C218.279909,112.701394 222.620088,107.667625 226.395865,105.717905 C233.93194,102.391645 239.180639,104.372959 245.429545,107.611962 C250.243631,110.109289 251.766563,118.639316 245.225931,119.293736 C239.343768,119.880457 238.394763,129.261983 226.212494,125.434754 C225.022963,127.840312 225.128938,135.199956 221.911609,135.199956 Z M227.904509,115.262204 C227.141257,117.876305 229.351235,120.992195 230.722946,121.423881 C232.817425,122.084325 236.041898,120.191546 236.67298,117.261982 C237.123073,115.273273 237.722006,112.327106 234.804739,113.059497 C232.890059,113.598183 234.367744,117.335775 232.186343,118.132734 C229.538178,118.145648 231.610034,113.13329 227.904509,115.262204 L227.904509,115.262204 Z" id="Fill-10" fill="#000000"></path>
                <path d="M322.400018,124.800007 C350.537922,129.632862 378.821038,150.257857 373.821803,166.400009 C362.690374,151.347055 342.802343,135.755621 322.400018,124.800007" id="Fill-11" fill="#000000"></path>
            </g>
        </g>
    </g>
</svg>