<?xml version="1.0" encoding="UTF-8"?>
<svg id="Capa_1" data-name="Capa 1" xmlns="http://www.w3.org/2000/svg" viewBox="0 0 639.93 135.98">
  <defs>
    <style>
      .cls-1 {
        fill: #14b3f7;
      }

      .cls-1, .cls-2 {
        stroke-width: 0px;
      }

      .cls-2 {
        fill: #282c30;
      }
    </style>
  </defs>
  <g>
    <path class="cls-2" d="m165.5,120.95v-15.1h-7.6v-22.71h-7.55v-22.71h-7.55v-22.71h-7.55V15.03h15.1v22.71h7.55v22.71h7.6v22.71h7.55v15.15h7.55v-15.15h7.6v-22.71h7.55v-22.71h7.55V15.03h15.16v22.71h-7.6v22.71h-7.55v22.71h-7.55v22.71h-7.55v15.1h-22.71Z"/>
    <path class="cls-2" d="m211.26,120.95v-22.65h7.55v-22.71h7.55v-22.71h7.55v-22.71h7.6v-15.15h22.71v15.15h7.55v22.71h7.55v22.71h7.55v22.71h7.6v22.65h-15.15v-22.65h-52.96v22.65h-15.1Zm60.51-37.81v-7.55h-7.55v-22.71h-7.6v-15.15h-7.55v15.15h-7.55v22.71h-7.6v7.55h37.86Z"/>
    <path class="cls-2" d="m302.38,120.95V15.03h22.65v15.15h7.6v15.15h7.55v15.1h7.55v15.15h7.6v15.1h7.55V15.03h15.1v105.92h-22.65v-15.1h-7.6v-15.15h-7.55v-15.1h-7.55v-15.15h-7.6v-15.1h-7.55v75.62h-15.1Z"/>
    <path class="cls-2" d="m465.72,120.95v-22.65h7.55v-22.71h7.55v-22.71h7.55v-22.71h7.6v-15.15h22.71v15.15h7.55v22.71h7.55v22.71h7.55v22.71h7.6v22.65h-15.15v-22.65h-52.96v22.65h-15.1Zm60.51-37.81v-7.55h-7.55v-22.71h-7.6v-15.15h-7.55v15.15h-7.55v22.71h-7.6v7.55h37.86Z"/>
    <path class="cls-2" d="m556.84,120.95V15.03h15.1v90.82h52.96v15.1h-68.06Z"/>
    <path class="cls-2" d="m454,37.73v-7.55h-7.55v-7.55h-7.55v-7.61h-53.01v105.93h53.01v-7.55h7.55v-7.56h7.55v-7.55h7.6v-60.56h-7.6Zm-7.55,52.96h-7.55v7.6h-7.55v7.55h-30.35V30.18h30.35v7.55h7.55v7.6h7.55v45.36Z"/>
  </g>
  <g>
    <polygon class="cls-2" points="82.65 105.93 82.65 98.41 82.65 90.9 75.14 90.9 75.14 83.39 75.14 75.87 67.62 75.87 67.62 68.36 60.11 68.36 60.11 60.85 60.11 53.33 52.6 53.33 52.6 45.82 52.6 38.3 45.08 38.3 45.08 30.79 45.08 23.28 37.57 23.28 37.57 30.79 30.05 30.79 30.05 38.3 22.54 38.3 22.54 45.82 15.03 45.82 15.03 53.33 15.03 60.85 15.03 68.36 15.03 75.87 15.03 83.39 15.03 90.9 22.54 90.9 22.54 98.41 30.05 98.41 30.05 105.93 37.57 105.93 37.57 113.44 45.08 113.44 45.08 120.95 52.6 120.95 60.11 120.95 67.62 120.95 75.14 120.95 82.65 120.95 90.16 120.95 90.16 113.44 90.16 105.93 82.65 105.93"/>
    <polygon class="cls-1" points="112.7 45.82 112.7 38.3 105.19 38.3 105.19 30.79 97.68 30.79 97.68 23.28 90.16 23.28 90.16 30.79 90.16 38.3 82.65 38.3 82.65 45.82 82.65 53.33 75.14 53.33 75.14 60.85 75.14 68.36 67.62 68.36 67.62 75.87 75.14 75.87 75.14 83.39 75.14 90.9 82.65 90.9 82.65 98.41 82.65 105.93 90.16 105.93 90.16 113.44 97.68 113.44 97.68 105.93 105.19 105.93 105.19 98.41 112.7 98.41 112.7 90.9 120.22 90.9 120.22 83.39 120.22 75.87 120.22 68.36 120.22 60.85 120.22 53.33 120.22 45.82 112.7 45.82"/>
  </g>
</svg>