<?xml version="1.0" encoding="UTF-8"?>
<svg id="Capa_1" data-name="Capa 1" xmlns="http://www.w3.org/2000/svg" viewBox="0 0 135.24 127.73">
  <defs>
    <style>
      .cls-1 {
        fill: #14b3f7;
      }

      .cls-1, .cls-2 {
        stroke-width: 0px;
      }

      .cls-2 {
        fill: #282c30;
      }
    </style>
  </defs>
  <polygon class="cls-2" points="82.65 97.68 82.65 90.16 82.65 82.65 75.14 82.65 75.14 75.14 75.14 67.62 67.62 67.62 67.62 60.11 60.11 60.11 60.11 52.59 60.11 45.08 52.6 45.08 52.6 37.57 52.6 30.05 45.08 30.05 45.08 22.54 45.08 15.03 37.57 15.03 37.57 22.54 30.05 22.54 30.05 30.05 22.54 30.05 22.54 37.57 15.03 37.57 15.03 45.08 15.03 52.59 15.03 60.11 15.03 67.62 15.03 75.14 15.03 82.65 22.54 82.65 22.54 90.16 30.05 90.16 30.05 97.68 37.57 97.68 37.57 105.19 45.08 105.19 45.08 112.7 52.6 112.7 60.11 112.7 67.62 112.7 75.14 112.7 82.65 112.7 90.16 112.7 90.16 105.19 90.16 97.68 82.65 97.68"/>
  <polygon class="cls-1" points="112.7 37.57 112.7 30.05 105.19 30.05 105.19 22.54 97.68 22.54 97.68 15.03 90.16 15.03 90.16 22.54 90.16 30.05 82.65 30.05 82.65 37.57 82.65 45.08 75.14 45.08 75.14 52.59 75.14 60.11 67.62 60.11 67.62 67.62 75.14 67.62 75.14 75.14 75.14 82.65 82.65 82.65 82.65 90.16 82.65 97.68 90.16 97.68 90.16 105.19 97.68 105.19 97.68 97.68 105.19 97.68 105.19 90.16 112.7 90.16 112.7 82.65 120.22 82.65 120.22 75.14 120.22 67.62 120.22 60.11 120.22 52.59 120.22 45.08 120.22 37.57 112.7 37.57"/>
</svg>