<?xml version="1.0" encoding="UTF-8"?>
<svg id="Capa_1" data-name="Capa 1" xmlns="http://www.w3.org/2000/svg" viewBox="0 0 484 78.9">
  <defs>
    <style>
      .cls-1 {
        fill: #14b3f7;
      }

      .cls-1, .cls-2 {
        stroke-width: 0px;
      }

      .cls-2 {
        fill: #282c30;
      }
    </style>
  </defs>
  <g>
    <path class="cls-2" d="m118.78,78.9v-10.33h-10.7v-20.91h-10.7V0h15.44v41.46h10.7v20.91h6.08v-20.91h10.7V0h15.56v47.66h-10.82v20.91h-10.7v10.33h-15.56Z"/>
    <path class="cls-2" d="m176.53,78.9v-10.33h-10.7V31.25h10.7v-10.46h36.96v10.46h10.82v31.12h10.82v16.53h-15.56v-10.33h-6.08v10.33h-36.96Zm4.74-16.53h27.48v-25.04h-27.48v25.04Z"/>
    <path class="cls-2" d="m246.31,78.9V20.79h47.66v10.46h10.82v47.66h-15.56v-41.58h-27.48v41.58h-15.44Z"/>
    <path class="cls-2" d="m327.89,78.9v-10.33h-10.7V31.25h10.7v-10.46h32.34V0h15.56v68.57h-10.94v10.33h-36.96Zm4.74-16.53h27.48v-25.04h-27.48v25.04Z"/>
    <path class="cls-2" d="m398.77,78.9v-10.33h-10.7V31.25h10.7v-10.46h36.96v10.46h10.82v31.12h10.82v16.53h-15.56v-10.33h-6.08v10.33h-36.96Zm4.74-16.53h27.48v-25.04h-27.48v25.04Z"/>
    <path class="cls-2" d="m468.56,78.9V0h15.44v78.9h-15.44Z"/>
  </g>
  <polygon class="cls-1" points="75.74 12.8 75.74 2.2 64.92 2.2 64.92 12.8 64.92 13.02 64.92 23.62 54.1 23.62 54.1 34.44 43.28 34.44 43.28 45.26 54.1 45.26 54.1 56.08 64.92 56.08 64.92 66.69 75.74 66.69 75.74 56.08 86.56 56.08 86.56 45.26 86.56 34.44 86.56 23.62 86.56 12.8 75.74 12.8"/>
  <polygon class="cls-2" points="54.1 55.86 54.1 45.26 43.28 45.26 43.28 34.44 32.46 34.44 32.46 23.62 21.64 23.62 21.64 13.02 21.64 12.8 21.64 2.2 10.82 2.2 10.82 12.8 0 12.8 0 23.62 0 34.44 0 45.26 0 56.08 10.82 56.08 10.82 66.69 21.64 66.69 21.64 77.51 32.46 77.51 43.28 77.51 54.1 77.51 64.92 77.51 64.92 66.69 64.92 55.86 54.1 55.86"/>
</svg>