<?xml version="1.0" encoding="UTF-8"?>
<svg id="Capa_1" data-name="Capa 1" xmlns="http://www.w3.org/2000/svg" viewBox="0 0 529.47 90.52">
  <defs>
    <style>
      .cls-1 {
        fill: #14b3f7;
      }

      .cls-1, .cls-2 {
        stroke-width: 0px;
      }

      .cls-2 {
        fill: #282c30;
      }
    </style>
  </defs>
  <path class="cls-1" d="m90.53,45.26c0,18.73-11.37,34.79-27.58,41.67l-17.68-39.25L64.74,4.4c15.25,7.28,25.79,22.84,25.79,40.86Z"/>
  <path class="cls-2" d="m141.29,90.52l-1.91-4.27L100.63,0h19.15l21.45,47.67L162.68,0h19.37l-40.77,90.52Z"/>
  <path class="cls-2" d="m189.64,77.6l-5.84,12.92h-19.32L203.23,4.21,205.14,0l1.97,4.27,38.8,86.25h-19.37l-5.78-12.97-.28-.62h-30.55l-.28.67Zm22.63-18.75l-7.08-15.83-7.13,15.83h14.21Z"/>
  <path class="cls-2" d="m303.8,49.47V0h18.14v90.52l-54.3-49.53v49.53h-18.14V0l54.3,49.47Z"/>
  <path class="cls-2" d="m381.9,13.31c8.87,8.87,13.31,19.52,13.31,31.95s-4.44,23.12-13.31,31.98c-8.87,8.85-19.52,13.28-31.95,13.28h-18.14V0h18.14c12.43,0,23.08,4.44,31.95,13.31Zm-12.8,51.13c5.32-5.3,7.97-11.69,7.97-19.18s-2.66-13.84-7.97-19.18c-5.32-5.33-11.7-8-19.15-8v54.3c7.45,0,13.83-2.65,19.15-7.95Z"/>
  <path class="cls-2" d="m415.31,77.6l-5.84,12.92h-19.32L428.9,4.21,430.81,0l1.96,4.27,38.8,86.25h-19.37l-5.78-12.97-.28-.62h-30.55l-.28.67Zm22.63-18.75l-7.08-15.83-7.13,15.83h14.21Z"/>
  <path class="cls-2" d="m493.31,0v72.38h36.16v18.14h-54.3V0h18.14Z"/>
  <g>
    <path class="cls-2" d="m45.27,0s0,0-.01,0,0,0-.01,0h.03Z"/>
    <path class="cls-2" d="m62.95,86.93c-5.43,2.31-11.41,3.59-17.69,3.59C20.26,90.52,0,70.25,0,45.26,0,27.23,10.53,11.67,25.78,4.39l4.58,10.18,14.9,33.09,17.69,39.27Z"/>
  </g>
</svg>