<?xml version="1.0" encoding="UTF-8"?>
<svg id="Capa_1" data-name="Capa 1" xmlns="http://www.w3.org/2000/svg" viewBox="0 0 518.87 78.95">
  <defs>
    <style>
      .cls-1 {
        fill: #14b3f7;
      }

      .cls-1, .cls-2 {
        stroke-width: 0px;
      }

      .cls-2 {
        fill: #282c30;
      }
    </style>
  </defs>
  <g>
    <path class="cls-2" d="m118.89,78.95v-10.33h-10.7v-20.91h-10.7V.05h15.44v41.46h10.7v20.91h6.08v-20.91h10.7V.05h15.56v47.66h-10.82v20.91h-10.7v10.33h-15.56Z"/>
    <path class="cls-2" d="m167.15,78.95V20.84h10.7v-10.33h10.7V.05h15.56v10.46h10.7v10.33h10.82v58.11h-15.56v-20.79h-27.48v20.79h-15.44Zm15.44-37.45h27.48v-14.47h-10.7v-10.33h-6.08v10.33h-10.7v14.47Z"/>
    <path class="cls-2" d="m240.46,78.95V.05h15.44v10.46h10.7v10.33h10.82v31.12h5.96V.05h15.56v78.9h-15.56v-10.33h-10.7v-10.46h-10.82v-31.12h-5.96v51.91h-15.44Z"/>
    <path class="cls-2" d="m313.77,78.95V.05h36.96v10.46h10.7v10.33h10.82v37.32h-10.82v10.46h-10.7v10.33h-36.96Zm15.44-16.53h16.78v-10.46h10.7v-24.92h-10.7v-10.33h-16.78v45.71Z"/>
    <path class="cls-2" d="m387.08,78.95V20.84h10.7v-10.33h10.7V.05h15.56v10.46h10.7v10.33h10.82v58.11h-15.56v-20.79h-27.48v20.79h-15.44Zm15.44-37.45h27.48v-14.47h-10.7v-10.33h-6.08v10.33h-10.7v14.47Z"/>
    <path class="cls-2" d="m471.09,78.95v-10.33h-10.7V.05h15.44v62.37h27.48v-10.46h15.56v16.66h-10.82v10.33h-36.96Z"/>
  </g>
  <g>
    <polygon class="cls-1" points="75.74 14.25 75.74 3.64 64.92 3.64 64.92 14.25 64.92 14.46 64.92 25.07 54.1 25.07 54.1 35.89 43.28 35.89 43.28 46.71 54.1 46.71 54.1 57.53 64.92 57.53 64.92 68.13 75.74 68.13 75.74 57.53 86.56 57.53 86.56 46.71 86.56 35.89 86.56 25.07 86.56 14.25 75.74 14.25"/>
    <polygon class="cls-2" points="54.1 57.31 54.1 46.71 43.28 46.71 43.28 35.89 32.46 35.89 32.46 25.07 21.64 25.07 21.64 14.46 21.64 14.25 21.64 3.64 10.82 3.64 10.82 14.25 0 14.25 0 25.07 0 35.89 0 46.71 0 57.53 10.82 57.53 10.82 68.13 21.64 68.13 21.64 78.95 32.46 78.95 43.28 78.95 54.1 78.95 64.92 78.95 64.92 68.13 64.92 57.31 54.1 57.31"/>
  </g>
</svg>