<?xml version="1.0" encoding="UTF-8"?>
<svg id="Capa_1" data-name="Capa 1" xmlns="http://www.w3.org/2000/svg" viewBox="0 0 338.29 85.6">
  <defs>
    <style>
      .cls-1 {
        fill: #0ec802;
      }

      .cls-1, .cls-2 {
        stroke-width: 0px;
      }

      .cls-2 {
        fill: #21301d;
      }
    </style>
  </defs>
  <g>
    <path class="cls-2" d="m270.1,60.48l-6.55,25.13h-7.41l-4.01-16.54-4.15,16.54h-7.41l-6.37-25.13h6.55l3.62,18.29,4.47-18.29h6.73l4.3,18.29,3.65-18.29h6.59Z"/>
    <path class="cls-2" d="m288.82,81.16h-9.38l-1.5,4.44h-6.41l9.09-25.13h7.09l9.09,25.13h-6.48l-1.5-4.44Zm-1.57-4.73l-3.11-9.2-3.08,9.2h6.19Z"/>
    <path class="cls-2" d="m312.37,85.6l-5.23-9.49h-1.47v9.49h-6.12v-25.13h10.27c1.98,0,3.67.35,5.06,1.04,1.4.69,2.44,1.64,3.13,2.85.69,1.21,1.04,2.55,1.04,4.03,0,1.67-.47,3.16-1.41,4.47-.94,1.31-2.33,2.24-4.17,2.79l5.8,9.95h-6.91Zm-6.69-13.82h3.79c1.12,0,1.96-.27,2.52-.82.56-.55.84-1.32.84-2.33s-.28-1.71-.84-2.26c-.56-.55-1.4-.82-2.52-.82h-3.79v6.23Z"/>
    <path class="cls-2" d="m329.02,65.38v5.08h8.2v4.72h-8.2v5.51h9.27v4.9h-15.39v-25.13h15.39v4.9h-9.27Z"/>
  </g>
  <path class="cls-2" d="m109.44.14l-18.43,50.26h-12.24L60.33.14h10.8l13.82,39.96L98.71.14h10.73Z"/>
  <path class="cls-2" d="m141.26,40.86h-20.02l-3.31,9.58h-10.58L125.42.1h11.74l18.07,50.33h-10.66l-3.31-9.58Zm-2.74-8.06l-7.27-21.02-7.27,21.02h14.54Z"/>
  <path class="cls-2" d="m204.98,50.43h-10.08l-22.82-34.49v34.49h-10.08V.1h10.08l22.82,34.56V.1h10.08v50.33Z"/>
  <path class="cls-2" d="m243.25,3.24c4.01,2.06,7.1,5,9.29,8.82,2.18,3.82,3.28,8.24,3.28,13.28s-1.09,9.44-3.28,13.21c-2.18,3.77-5.28,6.69-9.29,8.75-4.01,2.06-8.65,3.1-13.93,3.1h-17.57V.14h17.57c5.28,0,9.92,1.03,13.93,3.1Zm-2.05,34.27c2.88-2.88,4.32-6.94,4.32-12.17s-1.44-9.32-4.32-12.28-6.96-4.43-12.24-4.43h-7.13v33.19h7.13c5.28,0,9.36-1.44,12.24-4.32Z"/>
  <path class="cls-2" d="m290.91,40.86h-20.02l-3.31,9.58h-10.58L275.07.1h11.74l18.07,50.33h-10.66l-3.31-9.58Zm-2.74-8.06l-7.27-21.02-7.27,21.02h14.54Z"/>
  <path class="cls-2" d="m321.73,42.4h16.56v7.99h-26.64V.14h10.08v42.26Z"/>
  <path class="cls-1" d="m50.25,25.3c0,13.88-11.25,25.13-25.12,25.13S0,39.18,0,25.3C0,15.16,6.01,6.42,14.67,2.46l10.49,30.33L35.6,2.47c8.65,3.96,14.65,12.7,14.65,22.83Z"/>
  <path class="cls-2" d="m14.67,2.46l16.35,47.27c-1.89.46-3.86.7-5.89.7C11.25,50.43,0,39.18,0,25.3,0,15.16,6.01,6.42,14.67,2.46Z"/>
</svg>