<?xml version="1.0" encoding="UTF-8"?>
<svg id="Capa_1" data-name="Capa 1" xmlns="http://www.w3.org/2000/svg" viewBox="0 0 338.29 50.36">
  <defs>
    <style>
      .cls-1 {
        fill: #14b3f7;
      }

      .cls-1, .cls-2 {
        stroke-width: 0px;
      }

      .cls-2 {
        fill: #282c30;
      }
    </style>
  </defs>
  <path class="cls-2" d="m109.44.14l-18.43,50.26h-12.24L60.33.14h10.8l13.82,39.96L98.71.14h10.73Z"/>
  <path class="cls-2" d="m141.26,40.86h-20.02l-3.31,9.58h-10.58L125.42.1h11.74l18.07,50.33h-10.66l-3.31-9.58Zm-2.74-8.06l-7.27-21.02-7.27,21.02h14.54Z"/>
  <path class="cls-2" d="m204.98,50.43h-10.08l-22.82-34.49v34.49h-10.08V.1h10.08l22.82,34.56V.1h10.08v50.33Z"/>
  <path class="cls-2" d="m243.25,3.24c4.01,2.06,7.1,5,9.29,8.82,2.18,3.82,3.28,8.24,3.28,13.28s-1.09,9.44-3.28,13.21c-2.18,3.77-5.28,6.69-9.29,8.75-4.01,2.06-8.65,3.1-13.93,3.1h-17.57V.14h17.57c5.28,0,9.92,1.03,13.93,3.1Zm-2.05,34.27c2.88-2.88,4.32-6.94,4.32-12.17s-1.44-9.32-4.32-12.28-6.96-4.43-12.24-4.43h-7.13v33.19h7.13c5.28,0,9.36-1.44,12.24-4.32Z"/>
  <path class="cls-2" d="m290.91,40.86h-20.02l-3.31,9.58h-10.58L275.07.1h11.74l18.07,50.33h-10.66l-3.31-9.58Zm-2.74-8.06l-7.27-21.02-7.27,21.02h14.54Z"/>
  <path class="cls-2" d="m321.73,42.4h16.56v7.99h-26.64V.14h10.08v42.26Z"/>
  <g>
    <path class="cls-1" d="m50.25,25.3c0,13.88-11.25,25.13-25.12,25.13S0,39.18,0,25.3C0,15.16,6.01,6.42,14.67,2.46l10.49,30.33L35.6,2.47c8.65,3.96,14.65,12.7,14.65,22.83Z"/>
    <path class="cls-2" d="m14.67,2.46l16.35,47.27c-1.89.46-3.86.7-5.89.7C11.25,50.43,0,39.18,0,25.3,0,15.16,6.01,6.42,14.67,2.46Z"/>
  </g>
</svg>