<?xml version="1.0" encoding="UTF-8"?>
<svg id="Capa_1" data-name="Capa 1" xmlns="http://www.w3.org/2000/svg" viewBox="0 0 338.29 85.6">
  <defs>
    <style>
      .cls-1 {
        fill: #ed4322;
      }

      .cls-1, .cls-2 {
        stroke-width: 0px;
      }

      .cls-2 {
        fill: #372420;
      }
    </style>
  </defs>
  <g>
    <path class="cls-2" d="m210.31,84.73c-1.42-.58-2.56-1.44-3.41-2.59-.85-1.14-1.3-2.52-1.35-4.12h6.36c.09.91.41,1.6.94,2.08.54.48,1.23.72,2.1.72s1.58-.2,2.1-.61c.51-.41.77-.97.77-1.69,0-.61-.2-1.11-.61-1.5-.41-.4-.91-.72-1.5-.98-.59-.26-1.44-.55-2.53-.87-1.58-.49-2.88-.98-3.88-1.47-1-.49-1.86-1.21-2.59-2.17s-1.08-2.2-1.08-3.74c0-2.28.83-4.07,2.48-5.36s3.81-1.94,6.47-1.94,4.88.65,6.54,1.94,2.54,3.09,2.66,5.4h-6.47c-.05-.79-.34-1.42-.87-1.87s-1.22-.68-2.06-.68c-.72,0-1.31.19-1.75.58-.44.38-.66.94-.66,1.66,0,.79.37,1.41,1.12,1.85.75.44,1.91.92,3.49,1.43,1.58.54,2.87,1.05,3.86,1.54.99.49,1.85,1.2,2.57,2.13.72.93,1.08,2.13,1.08,3.6s-.36,2.67-1.07,3.81c-.71,1.14-1.74,2.05-3.09,2.73-1.35.68-2.95,1.01-4.79,1.01s-3.4-.29-4.82-.87Z"/>
    <path class="cls-2" d="m245.47,72.62c-.65,1.18-1.65,2.13-3.01,2.85-1.35.72-3.03,1.08-5.03,1.08h-3.7v8.81h-5.98v-24.53h9.68c1.96,0,3.61.34,4.96,1.01,1.35.68,2.36,1.61,3.04,2.8.67,1.19,1.01,2.55,1.01,4.09,0,1.42-.33,2.72-.98,3.9Zm-5.94-1.63c.56-.54.84-1.29.84-2.27s-.28-1.74-.84-2.27c-.56-.54-1.41-.8-2.55-.8h-3.25v6.15h3.25c1.14,0,1.99-.27,2.55-.8Z"/>
    <path class="cls-2" d="m254.82,84c-1.92-1.07-3.45-2.57-4.58-4.49-1.13-1.92-1.7-4.08-1.7-6.48s.57-4.56,1.7-6.47c1.13-1.91,2.66-3.4,4.58-4.47,1.92-1.07,4.04-1.61,6.34-1.61s4.42.54,6.34,1.61c1.92,1.07,3.44,2.56,4.54,4.47,1.11,1.91,1.66,4.07,1.66,6.47s-.56,4.56-1.68,6.48c-1.12,1.92-2.63,3.42-4.54,4.49-1.91,1.07-4.02,1.61-6.33,1.61s-4.42-.54-6.34-1.61Zm11.04-5.8c1.18-1.3,1.76-3.03,1.76-5.17s-.59-3.9-1.76-5.19c-1.18-1.29-2.74-1.94-4.7-1.94s-3.56.64-4.74,1.92c-1.18,1.28-1.76,3.02-1.76,5.21s.59,3.9,1.76,5.19,2.76,1.94,4.74,1.94,3.52-.65,4.7-1.96Z"/>
    <path class="cls-2" d="m289.54,85.36l-5.1-9.26h-1.43v9.26h-5.98v-24.53h10.03c1.93,0,3.58.34,4.94,1.01,1.36.68,2.38,1.6,3.06,2.78s1.01,2.49,1.01,3.93c0,1.63-.46,3.09-1.38,4.37-.92,1.28-2.28,2.19-4.07,2.73l5.66,9.72h-6.74Zm-6.54-13.49h3.7c1.1,0,1.92-.27,2.46-.8.55-.54.82-1.29.82-2.27s-.27-1.67-.82-2.2c-.55-.54-1.37-.8-2.46-.8h-3.7v6.08Z"/>
    <path class="cls-2" d="m317.46,60.83v4.79h-6.5v19.75h-5.98v-19.75h-6.5v-4.79h18.98Z"/>
    <path class="cls-2" d="m324.52,84.73c-1.42-.58-2.56-1.44-3.41-2.59-.85-1.14-1.3-2.52-1.35-4.12h6.36c.09.91.41,1.6.94,2.08.54.48,1.23.72,2.1.72s1.58-.2,2.1-.61c.51-.41.77-.97.77-1.69,0-.61-.2-1.11-.61-1.5-.41-.4-.91-.72-1.5-.98-.59-.26-1.44-.55-2.53-.87-1.59-.49-2.88-.98-3.88-1.47-1-.49-1.86-1.21-2.59-2.17-.72-.96-1.08-2.2-1.08-3.74,0-2.28.83-4.07,2.48-5.36,1.65-1.29,3.81-1.94,6.47-1.94s4.88.65,6.54,1.94c1.65,1.29,2.54,3.09,2.66,5.4h-6.47c-.05-.79-.34-1.42-.87-1.87-.54-.45-1.22-.68-2.06-.68-.72,0-1.31.19-1.75.58-.44.38-.66.94-.66,1.66,0,.79.37,1.41,1.12,1.85s1.91.92,3.49,1.43c1.58.54,2.87,1.05,3.86,1.54.99.49,1.85,1.2,2.57,2.13.72.93,1.08,2.13,1.08,3.6s-.36,2.67-1.07,3.81c-.71,1.14-1.74,2.05-3.09,2.73-1.35.68-2.95,1.01-4.79,1.01s-3.4-.29-4.82-.87Z"/>
  </g>
  <path class="cls-2" d="m109.44.14l-18.43,50.26h-12.24L60.33.14h10.8l13.82,39.96L98.71.14h10.73Z"/>
  <path class="cls-2" d="m141.26,40.86h-20.02l-3.31,9.58h-10.58L125.42.1h11.74l18.07,50.33h-10.66l-3.31-9.58Zm-2.74-8.06l-7.27-21.02-7.27,21.02h14.54Z"/>
  <path class="cls-2" d="m204.98,50.43h-10.08l-22.82-34.49v34.49h-10.08V.1h10.08l22.82,34.56V.1h10.08v50.33Z"/>
  <path class="cls-2" d="m243.25,3.24c4.01,2.06,7.1,5,9.29,8.82,2.18,3.82,3.28,8.24,3.28,13.28s-1.09,9.44-3.28,13.21c-2.18,3.77-5.28,6.69-9.29,8.75-4.01,2.06-8.65,3.1-13.93,3.1h-17.57V.14h17.57c5.28,0,9.92,1.03,13.93,3.1Zm-2.05,34.27c2.88-2.88,4.32-6.94,4.32-12.17s-1.44-9.32-4.32-12.28-6.96-4.43-12.24-4.43h-7.13v33.19h7.13c5.28,0,9.36-1.44,12.24-4.32Z"/>
  <path class="cls-2" d="m290.91,40.86h-20.02l-3.31,9.58h-10.58L275.07.1h11.74l18.07,50.33h-10.66l-3.31-9.58Zm-2.74-8.06l-7.27-21.02-7.27,21.02h14.54Z"/>
  <path class="cls-2" d="m321.73,42.4h16.56v7.99h-26.64V.14h10.08v42.26Z"/>
  <path class="cls-1" d="m50.25,25.3c0,13.88-11.25,25.13-25.12,25.13S0,39.18,0,25.3C0,15.16,6.01,6.42,14.67,2.46l10.49,30.33L35.6,2.47c8.65,3.96,14.65,12.7,14.65,22.83Z"/>
  <path class="cls-2" d="m14.67,2.46l16.35,47.27c-1.89.46-3.86.7-5.89.7C11.25,50.43,0,39.18,0,25.3,0,15.16,6.01,6.42,14.67,2.46Z"/>
</svg>