<?xml version="1.0" encoding="UTF-8"?>
<svg id="Capa_1" data-name="Capa 1" xmlns="http://www.w3.org/2000/svg" viewBox="0 0 338.29 85.6">
  <defs>
    <style>
      .cls-1 {
        fill: #7f31ea;
      }

      .cls-1, .cls-2 {
        stroke-width: 0px;
      }

      .cls-2 {
        fill: #292030;
      }
    </style>
  </defs>
  <g>
    <path class="cls-2" d="m195.32,85.36l-5.1-9.26h-1.43v9.26h-5.98v-24.53h10.03c1.93,0,3.58.34,4.94,1.01,1.36.68,2.38,1.6,3.06,2.78.68,1.18,1.01,2.49,1.01,3.93,0,1.63-.46,3.09-1.38,4.37-.92,1.28-2.28,2.19-4.07,2.73l5.66,9.72h-6.75Zm-6.54-13.49h3.7c1.09,0,1.92-.27,2.46-.8.55-.54.82-1.29.82-2.27s-.27-1.67-.82-2.2c-.55-.54-1.37-.8-2.46-.8h-3.7v6.08Z"/>
    <path class="cls-2" d="m220.86,81.03h-9.16l-1.47,4.33h-6.26l8.88-24.53h6.92l8.88,24.53h-6.33l-1.47-4.33Zm-1.54-4.61l-3.04-8.98-3.01,8.98h6.05Z"/>
    <path class="cls-2" d="m253.29,85.36h-5.98l-10-15.13v15.13h-5.98v-24.53h5.98l10,15.2v-15.2h5.98v24.53Z"/>
    <path class="cls-2" d="m273.6,62.36c1.93,1.03,3.43,2.46,4.49,4.32,1.06,1.85,1.59,3.99,1.59,6.41s-.53,4.53-1.59,6.4c-1.06,1.86-2.56,3.31-4.51,4.33-1.95,1.03-4.2,1.54-6.76,1.54h-9.19v-24.53h9.19c2.59,0,4.85.51,6.78,1.54Zm-1.89,15.97c1.26-1.23,1.89-2.98,1.89-5.24s-.63-4.02-1.89-5.28c-1.26-1.26-3.02-1.89-5.28-1.89h-2.83v14.26h2.83c2.26,0,4.02-.62,5.28-1.85Z"/>
    <path class="cls-2" d="m288.29,84c-1.92-1.07-3.45-2.57-4.58-4.49-1.13-1.92-1.7-4.08-1.7-6.48s.56-4.56,1.7-6.47c1.13-1.91,2.66-3.4,4.58-4.47,1.92-1.07,4.04-1.61,6.34-1.61s4.42.54,6.34,1.61c1.92,1.07,3.44,2.56,4.54,4.47,1.11,1.91,1.66,4.07,1.66,6.47s-.56,4.56-1.68,6.48c-1.12,1.92-2.63,3.42-4.54,4.49s-4.02,1.61-6.33,1.61-4.42-.54-6.34-1.61Zm11.04-5.8c1.18-1.3,1.76-3.03,1.76-5.17s-.59-3.9-1.76-5.19c-1.18-1.29-2.74-1.94-4.7-1.94s-3.56.64-4.74,1.92c-1.18,1.28-1.76,3.02-1.76,5.21s.59,3.9,1.76,5.19c1.18,1.29,2.75,1.94,4.74,1.94s3.52-.65,4.7-1.96Z"/>
    <path class="cls-2" d="m338.29,60.83v24.53h-5.98v-14.71l-5.49,14.71h-4.82l-5.52-14.75v14.75h-5.98v-24.53h7.06l6.89,16.98,6.81-16.98h7.02Z"/>
  </g>
  <path class="cls-2" d="m109.44.14l-18.43,50.26h-12.24L60.33.14h10.8l13.82,39.96L98.71.14h10.73Z"/>
  <path class="cls-2" d="m141.26,40.86h-20.02l-3.31,9.58h-10.58L125.42.1h11.74l18.07,50.33h-10.66l-3.31-9.58Zm-2.74-8.06l-7.27-21.02-7.27,21.02h14.54Z"/>
  <path class="cls-2" d="m204.98,50.43h-10.08l-22.82-34.49v34.49h-10.08V.1h10.08l22.82,34.56V.1h10.08v50.33Z"/>
  <path class="cls-2" d="m243.25,3.24c4.01,2.06,7.1,5,9.29,8.82,2.18,3.82,3.28,8.24,3.28,13.28s-1.09,9.44-3.28,13.21c-2.18,3.77-5.28,6.69-9.29,8.75-4.01,2.06-8.65,3.1-13.93,3.1h-17.57V.14h17.57c5.28,0,9.92,1.03,13.93,3.1Zm-2.05,34.27c2.88-2.88,4.32-6.94,4.32-12.17s-1.44-9.32-4.32-12.28-6.96-4.43-12.24-4.43h-7.13v33.19h7.13c5.28,0,9.36-1.44,12.24-4.32Z"/>
  <path class="cls-2" d="m290.91,40.86h-20.02l-3.31,9.58h-10.58L275.07.1h11.74l18.07,50.33h-10.66l-3.31-9.58Zm-2.74-8.06l-7.27-21.02-7.27,21.02h14.54Z"/>
  <path class="cls-2" d="m321.73,42.4h16.56v7.99h-26.64V.14h10.08v42.26Z"/>
  <path class="cls-1" d="m50.25,25.3c0,13.88-11.25,25.13-25.12,25.13S0,39.18,0,25.3C0,15.16,6.01,6.42,14.67,2.46l10.49,30.33L35.6,2.47c8.65,3.96,14.65,12.7,14.65,22.83Z"/>
  <path class="cls-2" d="m14.67,2.46l16.35,47.27c-1.89.46-3.86.7-5.89.7C11.25,50.43,0,39.18,0,25.3,0,15.16,6.01,6.42,14.67,2.46Z"/>
</svg>