<?xml version="1.0" encoding="UTF-8"?>
<svg id="Capa_1" data-name="Capa 1" xmlns="http://www.w3.org/2000/svg" viewBox="0 0 97.68 105.19">
  <defs>
    <style>
      .cls-1 {
        fill: #cdd7de;
        stroke-width: 0px;
      }
    </style>
  </defs>
  <polygon class="cls-1" points="75.14 97.68 82.65 97.68 82.65 90.16 90.16 90.16 90.16 82.65 97.68 82.65 97.68 75.14 90.16 75.14 82.65 75.14 82.65 67.62 75.14 67.62 67.62 67.62 67.62 60.11 60.11 60.11 52.59 60.11 52.59 52.59 52.59 45.08 60.11 45.08 67.62 45.08 67.62 37.57 75.14 37.57 82.65 37.57 82.65 30.05 90.16 30.05 97.68 30.05 97.68 22.54 90.16 22.54 90.16 15.03 82.65 15.03 82.65 7.51 75.14 7.51 75.14 0 67.62 0 60.11 0 52.59 0 45.08 0 37.57 0 30.05 0 30.05 7.51 22.54 7.51 22.54 15.03 15.03 15.03 15.03 22.54 7.51 22.54 7.51 30.05 0 30.05 0 37.57 0 45.08 0 52.59 0 60.11 0 67.62 0 75.14 7.51 75.14 7.51 82.65 15.03 82.65 15.03 90.16 22.54 90.16 22.54 97.68 30.05 97.68 30.05 105.19 37.57 105.19 45.08 105.19 52.59 105.19 60.11 105.19 67.62 105.19 75.14 105.19 75.14 97.68"/>
</svg>