<svg width="40" height="40" viewBox="0 0 40 40" fill="none" xmlns="http://www.w3.org/2000/svg">
<g clip-path="url(#clip0_8201_11560)">
<path d="M29.6868 20C29.6884 22.2797 28.8853 24.4869 27.4191 26.2326C25.9529 27.9783 23.9177 29.1505 21.6719 29.5428C19.4262 29.9351 17.1141 29.5223 15.1429 28.377C13.1717 27.2318 11.6679 25.4276 10.8965 23.2824L5.35547 27.7151C7.07841 30.9903 9.84906 33.5938 13.225 35.1098C16.601 36.6258 20.3875 36.967 23.9801 36.0788C27.5727 35.1906 30.764 33.1243 33.0446 30.2098C35.3252 27.2953 36.5636 23.7007 36.5618 20" fill="#00AC47"/>
<path d="M29.6875 20C29.6863 21.5413 29.3168 23.0599 28.6098 24.4294C27.9028 25.7989 26.8788 26.9797 25.623 27.8734L31.101 32.2557C32.8188 30.7092 34.1925 28.8191 35.1334 26.7079C36.0742 24.5967 36.5611 22.3114 36.5625 20" fill="#4285F4"/>
<path d="M10.3125 20C10.3149 18.8802 10.5127 17.7694 10.8971 16.7177L5.35612 12.2849C4.09623 14.6614 3.4375 17.3102 3.4375 20C3.4375 22.6898 4.09623 25.3387 5.35612 27.7152L10.8971 23.2824C10.5127 22.2306 10.3149 21.1198 10.3125 20Z" fill="#FFBA00"/>
<path d="M19.9993 10.3125C22.0492 10.3131 24.0453 10.9681 25.6968 12.1823L30.7718 7.44564C28.8879 5.82134 26.6615 4.64346 24.2587 3.99992C21.856 3.35637 19.3389 3.26377 16.8953 3.72902C14.4518 4.19427 12.1448 5.20536 10.1466 6.68685C8.14847 8.16833 6.51068 10.0819 5.35547 12.2849L10.8965 16.7176C11.5722 14.8444 12.8085 13.2246 14.4372 12.0786C16.0658 10.9326 18.0079 10.316 19.9993 10.3125Z" fill="#EA4435"/>
<path d="M36.5625 18.75V20L33.75 24.375H20.625V17.5H35.3125C35.644 17.5 35.962 17.6317 36.1964 17.8661C36.4308 18.1005 36.5625 18.4185 36.5625 18.75Z" fill="#4285F4"/>
</g>
<defs>
<clipPath id="clip0_8201_11560">
<rect width="40" height="40" fill="white"/>
</clipPath>
</defs>
</svg>
