<svg id="Capa_1" data-name="Capa 1" xmlns="http://www.w3.org/2000/svg" viewBox="0 0 594.78 458.98"><defs><style>.cls-1{fill:#fff;}</style></defs><path class="cls-1" d="M0,417.4c4-11.95,14.16-17.55,24.22-23.19,17.11-9.6,35.63-15.83,54-22.35q32.82-11.66,65.65-23.31,28.95-10.31,57.91-20.62a6.58,6.58,0,0,1,1.57-.12v55.84l-19.18,6.89C161.12,398.81,138,407,115,415.38c-6.62,2.4-13.16,5-19.63,7.83a16.84,16.84,0,0,0-5.09,3.91c-3,3.15-2.62,6.75.94,9.3,4.54,3.25,9.87,4.44,15.22,5.05a115.15,115.15,0,0,0,56-7.46c12.77-5,25.78-9.41,38.68-14.07a19.82,19.82,0,0,1,2.18-.51c.08.9.21,1.65.21,2.39,0,14.94,0,29.88,0,44.82,0,1.75-.14,2.9-2.29,3.28A331.59,331.59,0,0,1,143,475.07a305.23,305.23,0,0,1-72.61-8.79C55.2,462.51,40.07,458.64,25.87,452,16.51,447.69,8,442.1,2.79,432.7c-1.12-2-1.87-4.29-2.79-6.45Z" transform="translate(0 -68.43)"/><path class="cls-1" d="M222.36,68.43c4.45.87,8.5,1.49,12.47,2.47,17.61,4.34,35.3,8.41,52.76,13.29C307.32,89.71,326.85,96,346.43,102a317.17,317.17,0,0,1,46.05,17.87c21.29,10.36,40.42,23.41,53.69,43.66,7.92,12.08,12.81,25.36,15.66,39.43a214.32,214.32,0,0,1,3.57,55.43c-.95,16.08-4.13,31.7-12.16,46-13.09,23.29-35.42,34.14-62.11,30.33a118.1,118.1,0,0,1-30.64-9.11c-2.27-1-2.87-2.32-2.86-4.67q.09-68.58,0-137.16c0-7.37.17-14.75-1.93-21.94-2.39-8.21-7-14.4-15.34-17.33s-14.94-.3-18.15,8c-1.58,4-2.21,8.51-2.83,12.84a68.92,68.92,0,0,0-.14,9.43q0,174.33,0,348.66v4.07c-3.12-.95-5.87-1.76-8.6-2.62q-42.92-13.57-85.83-27.12c-2.41-.75-2.52-2.13-2.52-4.14q0-145.56,0-291.13v-134Z" transform="translate(0 -68.43)"/><path class="cls-1" d="M337.57,520.85V517c0-16.32.05-32.64,0-49,0-2.32.59-3.34,2.92-4.16q49.1-17.31,98.1-34.87c18.19-6.48,36.43-12.83,54.56-19.51a50.25,50.25,0,0,0,12.38-6.59c5-3.74,4.64-8.8-1.08-11.3a55,55,0,0,0-16.32-4.43c-18.67-1.83-36.68,1.16-54.29,7.8-20,7.53-40.29,14.27-60.45,21.36l-31.91,11.26c-1.09.39-2.2.71-3.69,1.19-.07-1.28-.16-2.3-.16-3.32,0-17.31,0-34.61-.07-51.91,0-2.14.67-3,2.69-3.72a359.39,359.39,0,0,1,56.23-13.7,296.84,296.84,0,0,1,62.5-4.16c31.34,1.43,62,6.52,91.54,17.47,9.69,3.58,19.42,6.93,28.08,12.68,5.94,3.95,11.32,8.47,14.34,15.21,3.66,8.17,1.92,17.1-4.72,24.16-7.6,8.08-16.87,13.87-26.91,18.18-12,5.13-24.23,9.61-36.48,14.07-26.07,9.49-52.21,18.79-78.33,28.16q-30,10.77-60.09,21.53-22.41,8.06-44.81,16.19C340.39,520,339.18,520.36,337.57,520.85Z" transform="translate(0 -68.43)"/></svg>