<svg id="Capa_1" data-name="Capa 1" xmlns="http://www.w3.org/2000/svg" viewBox="0 0 591.23 582.42"><defs><style>.cls-1{fill:#fff;}</style></defs><path class="cls-1" d="M347.87,586.25V6.22C403,10.48,459-4.42,510.92,23.38c48.81,26.16,78.21,67.09,79.37,122.34,2.12,101.23,1.91,202.56,0,303.8-1.35,70.4-60.69,131.15-131.13,136.26C422.53,588.44,385.58,586.25,347.87,586.25ZM520.81,326.41A58.63,58.63,0,0,0,462.66,267c-33.42-.32-60.26,25.57-60.72,58.58A59.54,59.54,0,0,0,461,385.82C494.19,386.25,520.63,360,520.81,326.41Z" transform="translate(-0.56 -5.95)"/><path class="cls-1" d="M282.46,588.37c-55.73-1.58-110.24.8-163.68-5.66C53.34,574.8,1.71,511.61,1.17,445.6Q0,297.48,1.12,149.33C1.64,80.31,54.82,17.54,125.43,10c51.4-5.52,103.87-1.08,157-1.08ZM237.52,296.15h-.08c0-75.92-.18-151.85.2-227.78.06-10.92-2.47-15.34-14.37-14.85-22.73.95-45.63-1-68.29.7-16.38,1.21-33.34,4.12-48.52,10.12C64.1,81.07,49,117.55,48.17,159.05c-1.7,91.58-.7,183.2-.69,274.81,0,4.52,1,9,1.58,13.56,6.3,49.73,30.29,79.32,79.46,88.55,29.93,5.62,61.34,3.08,92,5,13.29.84,17.36-3.59,17.25-17.07C237.21,448,237.52,372.08,237.52,296.15Z" transform="translate(-0.56 -5.95)"/><path class="cls-1" d="M147.78,127.65c29.68.24,53.44,24.72,53.1,54.7-.32,29.39-25.27,53.55-54.89,53.17-28.73-.37-53.44-25.19-53.2-53.45C93,151.19,117.08,127.4,147.78,127.65Z" transform="translate(-0.56 -5.95)"/></svg>