<svg id="Capa_1" data-name="Capa 1" xmlns="http://www.w3.org/2000/svg" viewBox="0 0 593.16 593.4"><defs><style>.cls-1{fill:#fff;}</style></defs><path class="cls-1" d="M299.49,594.4c-59.5.67-113.81-16.25-163.58-48.44-6.47-4.18-12.76-8.64-18.94-13.22a118.25,118.25,0,0,1-10.55-9.08c-8.9-8.4-11.58-18.95-10.27-30.8,1.42-12.83,5.88-24.73,11.28-36.31,7.92-17,17.85-32.76,28.59-48.05,19.11-27.22,40.57-52.51,63.28-76.76A929.58,929.58,0,0,1,281,253.92c3.48-2.91,7.13-5.63,10.76-8.36,1.58-1.18,3.32-2.14,5-3.24a4.52,4.52,0,0,1,5.72.16c4,3,8.16,5.92,12,9.14,14.78,12.37,28.71,25.67,42.5,39.12,23.91,23.32,47.44,47,69.29,72.3,20.31,23.51,38.78,48.39,54.31,75.36,7.26,12.6,13.64,25.61,18,39.55a83.42,83.42,0,0,1,3.62,18c.81,10-1.63,18.92-9.11,26.17a153.41,153.41,0,0,1-20.44,16.61c-26.16,17.81-54,32.35-84.12,42.23a261.25,261.25,0,0,1-44.43,9.9A344.19,344.19,0,0,1,299.49,594.4Z" transform="translate(-1.28 -1.02)"/><path class="cls-1" d="M535.54,475.7c.3-1.9.49-3.83.93-5.7,1.79-7.62,1.54-15.32.75-23-2.57-24.94-10.57-48.31-20.81-71-14.41-31.92-31.53-62.38-49.75-92.24A1043.65,1043.65,0,0,0,383.3,166.11c-.74-.91-1.42-1.85-2.1-2.74a5.2,5.2,0,0,1,.63-.91c15.7-14.3,31.08-29,47.7-42.23a292.67,292.67,0,0,1,27-19.3,135.38,135.38,0,0,1,35.25-15.85c1.9-.53,3.88-.74,5.77-1.27,3-.83,5.41,0,7.76,1.78a103.42,103.42,0,0,1,15,14.24c23.69,26.14,41.4,56,54.3,88.71a307.92,307.92,0,0,1,15.68,53,218.79,218.79,0,0,1,3.25,27.93c1.09,16.19,1,32.39.61,48.59-.52,21.68-4.85,42.64-10.87,63.43-9,31.16-23.39,59.65-41.19,86.57-1.53,2.31-3.23,4.49-4.88,6.71a11.57,11.57,0,0,1-1.18,1.14Z" transform="translate(-1.28 -1.02)"/><path class="cls-1" d="M217.3,163c-1.43,1.78-2.34,2.93-3.27,4.06-35.47,42.62-66.75,88.17-94.84,135.94-14.18,24.1-27.38,48.72-38.64,74.34-7.64,17.4-13.9,35.25-17.73,53.9a148.53,148.53,0,0,0-3.2,24.94c-.21,6.26.25,12.44,2.64,18.34a7,7,0,0,1,.35,1.43,3.17,3.17,0,0,1-.09.79A5.75,5.75,0,0,1,60,474.13c-5.64-8.58-11.49-17-16.78-25.83-17-28.4-28.06-59.12-34.48-91.55a454.35,454.35,0,0,1-6.86-47.16A134.23,134.23,0,0,1,2.42,280Q4.91,260.63,8,241.33c2.88-18,8.21-35.36,14.9-52.29a301.92,301.92,0,0,1,43.27-76.25A214.48,214.48,0,0,1,85.86,91.06a60.34,60.34,0,0,1,4.94-4.24,13.41,13.41,0,0,1,11.76-2.47,120.43,120.43,0,0,1,33.87,13.79C151,106.65,164.28,116.9,177,127.9c12.93,11.17,25.56,22.69,38.34,34A11.16,11.16,0,0,0,217.3,163Z" transform="translate(-1.28 -1.02)"/><path class="cls-1" d="M148.85,41.48a12.83,12.83,0,0,1,5.49-4.11C165.21,32.2,176,26.83,187,22.07,206,13.9,225.74,8.51,246,4.74A205.45,205.45,0,0,1,276.57,1.6q14.65-.5,29.32-.57A254.82,254.82,0,0,1,390.5,14.84c17,5.8,33.78,12.17,49.57,20.87,3.12,1.71,6.12,3.62,9.17,5.44a1.9,1.9,0,0,1,.87,1.17l-4.47-.26a161.19,161.19,0,0,0-24.86.11,202.71,202.71,0,0,0-35.37,7c-21.14,6-41.4,14.23-61.18,23.71-7.65,3.67-15.41,7.1-23.08,10.74a7.16,7.16,0,0,1-6.95-.12c-9.58-4.88-19.18-9.75-28.94-14.25a384.4,384.4,0,0,0-67.61-24.15c-11.49-2.88-23.17-3.66-35-3.45-3.36,0-6.72.14-10.07.16C151.57,41.8,150.53,41.63,148.85,41.48Z" transform="translate(-1.28 -1.02)"/></svg>