<svg width="576" height="512" viewBox="0 0 576 512" fill="none" xmlns="http://www.w3.org/2000/svg">
<path d="M549.7 124.1C543.4 100.4 524.9 81.8 501.4 75.5C458.8 64 288 64 288 64C288 64 117.2 64 74.6004 75.5C51.1004 81.8 32.6004 100.4 26.3004 124.1C14.9004 167 14.9004 256.4 14.9004 256.4C14.9004 256.4 14.9004 345.8 26.3004 388.7C32.6004 412.4 51.1004 430.2 74.6004 436.5C117.2 448 288 448 288 448C288 448 458.8 448 501.4 436.5C524.9 430.2 543.4 412.3 549.7 388.7C561.1 345.8 561.1 256.4 561.1 256.4C561.1 256.4 561.1 167 549.7 124.1ZM232.2 337.6V175.2L374.9 256.4L232.2 337.6Z" fill="#E8EDF0"/>
</svg>
