<svg width="27" height="27" viewBox="0 0 27 27" fill="none" xmlns="http://www.w3.org/2000/svg">
<g clip-path="url(#clip0_8557_14353)">
<path d="M4 12L7 12L7 9L10 9L10 6L13 6L13 3L16 3L16 -5.24537e-07L22 0L22 3L19 3L19 6L16 6L16 9L13 9L13 12L10 12L10 15L13 15L13 18L16 18L16 21L19 21L19 24L22 24L22 27L16 27L16 24L13 24L13 21L10 21L10 18L7 18L7 15L4 15L4 12Z" fill="#F4F7F9"/>
</g>
<defs>
<clipPath id="clip0_8557_14353">
<rect width="27" height="27" fill="white" transform="translate(27 27) rotate(-180)"/>
</clipPath>
</defs>
</svg>
