<svg width="27" height="27" viewBox="0 0 27 27" fill="none" xmlns="http://www.w3.org/2000/svg">
<g clip-path="url(#clip0_4061_5963)">
<rect x="12" y="23" width="3" height="3" transform="rotate(-90 12 23)" fill="url(#paint0_linear_4061_5963)"/>
<rect x="12" y="20" width="3" height="3" transform="rotate(-90 12 20)" fill="url(#paint1_linear_4061_5963)"/>
<rect x="9" y="20" width="3" height="3" transform="rotate(-90 9 20)" fill="url(#paint2_linear_4061_5963)"/>
<rect x="6" y="17" width="3" height="3" transform="rotate(-90 6 17)" fill="url(#paint3_linear_4061_5963)"/>
<rect x="3" y="14" width="3" height="3" transform="rotate(-90 3 14)" fill="url(#paint4_linear_4061_5963)"/>
<rect y="11" width="3" height="3" transform="rotate(-90 0 11)" fill="url(#paint5_linear_4061_5963)"/>
<rect x="9" y="17" width="3" height="3" transform="rotate(-90 9 17)" fill="url(#paint6_linear_4061_5963)"/>
<rect x="6" y="14" width="3" height="3" transform="rotate(-90 6 14)" fill="url(#paint7_linear_4061_5963)"/>
<rect x="3" y="11" width="3" height="3" transform="rotate(-90 3 11)" fill="url(#paint8_linear_4061_5963)"/>
<rect y="8" width="3" height="3" transform="rotate(-90 0 8)" fill="url(#paint9_linear_4061_5963)"/>
<rect width="3" height="3" transform="matrix(-3.0598e-07 1 1 3.0598e-07 24 5)" fill="url(#paint10_linear_4061_5963)"/>
<rect width="3" height="3" transform="matrix(-3.0598e-07 1 1 3.0598e-07 21 8)" fill="url(#paint11_linear_4061_5963)"/>
<rect width="3" height="3" transform="matrix(-3.0598e-07 1 1 3.0598e-07 18 11)" fill="url(#paint12_linear_4061_5963)"/>
<rect width="3" height="3" transform="matrix(-3.0598e-07 1 1 3.0598e-07 15 14)" fill="url(#paint13_linear_4061_5963)"/>
<rect width="3" height="3" transform="matrix(-3.0598e-07 1 1 3.0598e-07 24 8)" fill="url(#paint14_linear_4061_5963)"/>
<rect width="3" height="3" transform="matrix(-3.0598e-07 1 1 3.0598e-07 21 11)" fill="url(#paint15_linear_4061_5963)"/>
<rect width="3" height="3" transform="matrix(-3.0598e-07 1 1 3.0598e-07 18 14)" fill="url(#paint16_linear_4061_5963)"/>
<rect width="3" height="3" transform="matrix(-3.0598e-07 1 1 3.0598e-07 15 17)" fill="url(#paint17_linear_4061_5963)"/>
</g>
<defs>
<linearGradient id="paint0_linear_4061_5963" x1="13.5" y1="23" x2="13.5" y2="26" gradientUnits="userSpaceOnUse">
<stop stop-color="#282C30"/>
<stop offset="1" stop-color="#282C30"/>
</linearGradient>
<linearGradient id="paint1_linear_4061_5963" x1="13.5" y1="20" x2="13.5" y2="23" gradientUnits="userSpaceOnUse">
<stop stop-color="#282C30"/>
<stop offset="1" stop-color="#282C30"/>
</linearGradient>
<linearGradient id="paint2_linear_4061_5963" x1="10.5" y1="20" x2="10.5" y2="23" gradientUnits="userSpaceOnUse">
<stop stop-color="#282C30"/>
<stop offset="1" stop-color="#282C30"/>
</linearGradient>
<linearGradient id="paint3_linear_4061_5963" x1="7.5" y1="17" x2="7.5" y2="20" gradientUnits="userSpaceOnUse">
<stop stop-color="#282C30"/>
<stop offset="1" stop-color="#282C30"/>
</linearGradient>
<linearGradient id="paint4_linear_4061_5963" x1="4.5" y1="14" x2="4.5" y2="17" gradientUnits="userSpaceOnUse">
<stop stop-color="#282C30"/>
<stop offset="1" stop-color="#282C30"/>
</linearGradient>
<linearGradient id="paint5_linear_4061_5963" x1="1.5" y1="11" x2="1.5" y2="14" gradientUnits="userSpaceOnUse">
<stop stop-color="#282C30"/>
<stop offset="1" stop-color="#282C30"/>
</linearGradient>
<linearGradient id="paint6_linear_4061_5963" x1="10.5" y1="17" x2="10.5" y2="20" gradientUnits="userSpaceOnUse">
<stop stop-color="#282C30"/>
<stop offset="1" stop-color="#282C30"/>
</linearGradient>
<linearGradient id="paint7_linear_4061_5963" x1="7.5" y1="14" x2="7.5" y2="17" gradientUnits="userSpaceOnUse">
<stop stop-color="#282C30"/>
<stop offset="1" stop-color="#282C30"/>
</linearGradient>
<linearGradient id="paint8_linear_4061_5963" x1="4.5" y1="11" x2="4.5" y2="14" gradientUnits="userSpaceOnUse">
<stop stop-color="#282C30"/>
<stop offset="1" stop-color="#282C30"/>
</linearGradient>
<linearGradient id="paint9_linear_4061_5963" x1="1.5" y1="8" x2="1.5" y2="11" gradientUnits="userSpaceOnUse">
<stop stop-color="#282C30"/>
<stop offset="1" stop-color="#282C30"/>
</linearGradient>
<linearGradient id="paint10_linear_4061_5963" x1="1.5" y1="0" x2="1.5" y2="3" gradientUnits="userSpaceOnUse">
<stop stop-color="#282C30"/>
<stop offset="1" stop-color="#282C30"/>
</linearGradient>
<linearGradient id="paint11_linear_4061_5963" x1="1.5" y1="0" x2="1.5" y2="3" gradientUnits="userSpaceOnUse">
<stop stop-color="#282C30"/>
<stop offset="1" stop-color="#282C30"/>
</linearGradient>
<linearGradient id="paint12_linear_4061_5963" x1="1.5" y1="0" x2="1.5" y2="3" gradientUnits="userSpaceOnUse">
<stop stop-color="#282C30"/>
<stop offset="1" stop-color="#282C30"/>
</linearGradient>
<linearGradient id="paint13_linear_4061_5963" x1="1.5" y1="0" x2="1.5" y2="3" gradientUnits="userSpaceOnUse">
<stop stop-color="#282C30"/>
<stop offset="1" stop-color="#282C30"/>
</linearGradient>
<linearGradient id="paint14_linear_4061_5963" x1="1.5" y1="0" x2="1.5" y2="3" gradientUnits="userSpaceOnUse">
<stop stop-color="#282C30"/>
<stop offset="1" stop-color="#282C30"/>
</linearGradient>
<linearGradient id="paint15_linear_4061_5963" x1="1.5" y1="0" x2="1.5" y2="3" gradientUnits="userSpaceOnUse">
<stop stop-color="#282C30"/>
<stop offset="1" stop-color="#282C30"/>
</linearGradient>
<linearGradient id="paint16_linear_4061_5963" x1="1.5" y1="0" x2="1.5" y2="3" gradientUnits="userSpaceOnUse">
<stop stop-color="#282C30"/>
<stop offset="1" stop-color="#282C30"/>
</linearGradient>
<linearGradient id="paint17_linear_4061_5963" x1="1.5" y1="0" x2="1.5" y2="3" gradientUnits="userSpaceOnUse">
<stop stop-color="#282C30"/>
<stop offset="1" stop-color="#282C30"/>
</linearGradient>
<clipPath id="clip0_4061_5963">
<rect width="27" height="27" fill="white" transform="translate(27) rotate(90)"/>
</clipPath>
</defs>
</svg>
