<svg width="24" height="24" viewBox="0 0 24 24" fill="none" xmlns="http://www.w3.org/2000/svg">
<path d="M24 12H21V15H24V12Z" fill="#F4F7F9"/>
<path d="M18 12H15V15H18V12Z" fill="#F4F7F9"/>
<path d="M15 15H12V18H15V15Z" fill="#F4F7F9"/>
<path d="M12 18H9V21H12V18Z" fill="#F4F7F9"/>
<path d="M9 18H6V21H9V18Z" fill="#F4F7F9"/>
<path d="M9 15H6V18H9V15Z" fill="#F4F7F9"/>
<path d="M24 9H21V12H24V9Z" fill="#F4F7F9"/>
<path d="M18 9H15V12H18V9Z" fill="#F4F7F9"/>
<path d="M24 6H21V9H24V6Z" fill="#F4F7F9"/>
<path d="M18 6H15V9H18V6Z" fill="#F4F7F9"/>
<path d="M24 3H21V6H24V3Z" fill="#F4F7F9"/>
<path d="M18 3H15V6H18V3Z" fill="#F4F7F9"/>
<path d="M15 3H12V6H15V3Z" fill="#F4F7F9"/>
<path d="M12 3H9V6H12V3Z" fill="#F4F7F9"/>
<path d="M9 3H6V6H9V3Z" fill="#F4F7F9"/>
<path d="M6 6H3V9H6V6Z" fill="#F4F7F9"/>
<path d="M6 9H3V12H6V9Z" fill="#F4F7F9"/>
<path d="M6 12H3V15H6V12Z" fill="#F4F7F9"/>
<path d="M9 12H6V15H9V12Z" fill="#F4F7F9"/>
</svg>
