<svg width="24" height="24" viewBox="0 0 24 24" fill="none" xmlns="http://www.w3.org/2000/svg">
<g clip-path="url(#clip0_8302_12575)">
<path d="M14.9313 5.97247H11.9451V8.95871H14.9313V5.97247Z" fill="#F4F7F9"/>
<path d="M17.9174 2.98627H14.9312V5.97251H17.9174V2.98627Z" fill="#F4F7F9"/>
<path d="M20.9037 2.98627H17.9175V5.97251H20.9037V2.98627Z" fill="#F4F7F9"/>
<path d="M23.8898 5.97247H20.9036V8.95871H23.8898V5.97247Z" fill="#F4F7F9"/>
<path d="M23.8898 8.95874H20.9036V11.945H23.8898V8.95874Z" fill="#F4F7F9"/>
<path d="M23.8898 11.9449H20.9036V14.9312H23.8898V11.9449Z" fill="#F4F7F9"/>
<path d="M20.9037 14.9312H17.9175V17.9175H20.9037V14.9312Z" fill="#F4F7F9"/>
<path d="M17.9174 17.9174H14.9312V20.9037H17.9174V17.9174Z" fill="#F4F7F9"/>
<path d="M14.9313 20.9037H11.9451V23.8899H14.9313V20.9037Z" fill="#F4F7F9"/>
<path d="M11.945 5.97247H8.95874V8.95871H11.945V5.97247Z" fill="#F4F7F9"/>
<path d="M8.95865 2.98627H5.97241V5.97251H8.95865V2.98627Z" fill="#F4F7F9"/>
<path d="M5.97257 2.98627H2.98633V5.97251H5.97257V2.98627Z" fill="#F4F7F9"/>
<path d="M2.98624 5.97247H0V8.95871H2.98624V5.97247Z" fill="#F4F7F9"/>
<path d="M2.98624 8.95874H0V11.945H2.98624V8.95874Z" fill="#F4F7F9"/>
<path d="M2.98624 11.9449H0V14.9312H2.98624V11.9449Z" fill="#F4F7F9"/>
<path d="M5.97257 14.9312H2.98633V17.9175H5.97257V14.9312Z" fill="#F4F7F9"/>
<path d="M8.95865 17.9174H5.97241V20.9037H8.95865V17.9174Z" fill="#F4F7F9"/>
<path d="M11.945 20.9037H8.95874V23.8899H11.945V20.9037Z" fill="#F4F7F9"/>
</g>
<path opacity="0.5" d="M14.9316 23.9033H8.95898V20.917H5.97266V17.9307H2.98633V14.9453H0V5.98633H2.98633V3H8.95898V5.98633H14.9316V3H20.9033V5.98633H23.8896V14.9453H20.9033V17.9307H17.917V20.917H14.9316V23.9033Z" fill="#F4F7F9"/>
<defs>
<clipPath id="clip0_8302_12575">
<rect width="23.8899" height="23.8899" fill="white"/>
</clipPath>
</defs>
</svg>
