<svg width="24" height="24" viewBox="0 0 24 24" fill="none" xmlns="http://www.w3.org/2000/svg">
<path d="M15 6H12V9H15V6Z" fill="#14B3F7"/>
<path d="M18 3H15V6H18V3Z" fill="#14B3F7"/>
<path d="M21 3H18V6H21V3Z" fill="#14B3F7"/>
<path d="M24 6H21V9H24V6Z" fill="#14B3F7"/>
<path d="M24 9H21V12H24V9Z" fill="#14B3F7"/>
<path d="M24 12H21V15H24V12Z" fill="#14B3F7"/>
<path d="M21 15H18V18H21V15Z" fill="#14B3F7"/>
<path d="M18 18H15V21H18V18Z" fill="#14B3F7"/>
<path d="M18 15H15V18H18V15Z" fill="#14B3F7"/>
<path d="M15 21H12V24H15V21Z" fill="#14B3F7"/>
<path d="M12 6H9V9H12V6Z" fill="#14B3F7"/>
<path d="M9 3H6V6H9V3Z" fill="#14B3F7"/>
<path d="M9 6H6V9H9V6Z" fill="#14B3F7"/>
<path d="M9 9H6V12H9V9Z" fill="#14B3F7"/>
<path d="M9 12H6V15H9V12Z" fill="#14B3F7"/>
<path d="M15 9H12V12H15V9Z" fill="#14B3F7"/>
<path d="M15 12H12V15H15V12Z" fill="#14B3F7"/>
<path d="M15 15H12V18H15V15Z" fill="#14B3F7"/>
<path d="M15 18H12V21H15V18Z" fill="#14B3F7"/>
<path d="M21 6H18V9H21V6Z" fill="#14B3F7"/>
<path d="M21 9H18V12H21V9Z" fill="#14B3F7"/>
<path d="M21 12H18V15H21V12Z" fill="#14B3F7"/>
<path d="M21 12H18V15H21V12Z" fill="#14B3F7"/>
<path d="M6 3H3V6H6V3Z" fill="#14B3F7"/>
<path d="M6 6H3V9H6V6Z" fill="#14B3F7"/>
<path d="M6 9H3V12H6V9Z" fill="#14B3F7"/>
<path d="M6 12H3V15H6V12Z" fill="#14B3F7"/>
<path d="M12 9H9V12H12V9Z" fill="#14B3F7"/>
<path d="M12 12H9V15H12V12Z" fill="#14B3F7"/>
<path d="M12 15H9V18H12V15Z" fill="#14B3F7"/>
<path d="M12 18H9V21H12V18Z" fill="#14B3F7"/>
<path d="M18 6H15V9H18V6Z" fill="#14B3F7"/>
<path d="M18 9H15V12H18V9Z" fill="#14B3F7"/>
<path d="M18 12H15V15H18V12Z" fill="#14B3F7"/>
<path d="M18 12H15V15H18V12Z" fill="#14B3F7"/>
<path d="M3 6H0V9H3V6Z" fill="#14B3F7"/>
<path d="M3 9H0V12H3V9Z" fill="#14B3F7"/>
<path d="M3 12H0V15H3V12Z" fill="#14B3F7"/>
<path d="M6 15H3V18H6V15Z" fill="#14B3F7"/>
<path d="M9 18H6V21H9V18Z" fill="#14B3F7"/>
<path d="M9 15H6V18H9V15Z" fill="#14B3F7"/>
<path d="M12 21H9V24H12V21Z" fill="#14B3F7"/>
</svg>
