<svg width="56" height="60" viewBox="0 0 56 60" fill="none" xmlns="http://www.w3.org/2000/svg">
<path d="M0 0H56V60H0V0Z" fill="#393430"/>
<path d="M3.45679 2.7907H53.2346V50.9302H3.45679V2.7907Z" fill="#FCAB2E"/>
<path d="M20.287 6.25727V46.0465H13.3465V14.9237L5.6767 18.0033V12.0621L19.4769 6.25727H20.287Z" fill="white"/>
<path d="M44.4619 6.01199H45.3261V12.0076H44.948C43.1116 12.0076 41.5362 12.3347 40.2219 12.9887C38.9256 13.6428 37.8634 14.5603 37.0352 15.7413C36.207 16.9222 35.5949 18.3303 35.1988 19.9655C34.8207 21.5825 34.6316 23.3539 34.6316 25.2798V31.766C34.6316 33.2376 34.7397 34.5367 34.9557 35.6632C35.1898 36.7896 35.5048 37.7253 35.9009 38.4702C36.315 39.2151 36.7921 39.7783 37.3323 40.1599C37.8724 40.5233 38.4485 40.7049 39.0606 40.7049C39.7448 40.7049 40.3659 40.5233 40.9241 40.1599C41.4822 39.7783 41.9503 39.2424 42.3284 38.552C42.7245 37.8616 43.0216 37.0621 43.2196 36.1537C43.4356 35.2271 43.5437 34.2097 43.5437 33.1014C43.5437 32.0113 43.4356 31.0029 43.2196 30.0763C43.0216 29.1497 42.7335 28.3412 42.3554 27.6508C41.9773 26.9604 41.5092 26.4244 40.9511 26.0429C40.393 25.6432 39.7628 25.4433 39.0606 25.4433C38.0884 25.4433 37.2512 25.734 36.5491 26.3154C35.8469 26.8968 35.2888 27.6508 34.8747 28.5774C34.4786 29.504 34.2535 30.476 34.1995 31.4935L31.904 30.2126C32.012 28.6864 32.3001 27.2874 32.7682 26.0156C33.2543 24.7438 33.8935 23.6265 34.6856 22.6635C35.4778 21.6824 36.405 20.9284 37.4673 20.4015C38.5475 19.8746 39.7358 19.6112 41.0321 19.6112C42.6165 19.6112 44.0028 19.9746 45.191 20.7013C46.3793 21.4099 47.3605 22.3819 48.1347 23.6174C48.9089 24.8528 49.485 26.2791 49.8631 27.8961C50.2412 29.4949 50.4302 31.1937 50.4302 32.9924C50.4302 34.9001 50.1692 36.6806 49.6471 38.3339C49.143 39.9873 48.4048 41.4317 47.4326 42.6671C46.4783 43.9026 45.2991 44.8656 43.8948 45.556C42.5084 46.2464 40.9421 46.5916 39.1957 46.5916C37.3953 46.5916 35.7839 46.2009 34.3616 45.4197C32.9392 44.6203 31.724 43.512 30.7157 42.0948C29.7255 40.6595 28.9693 38.9971 28.4472 37.1076C27.9431 35.218 27.691 33.1559 27.691 30.9211V28.0323C27.691 24.9255 28.0241 22.0367 28.6903 19.3659C29.3564 16.6951 30.3737 14.3605 31.742 12.3619C33.1103 10.3634 34.8477 8.80996 36.9542 7.70167C39.0606 6.57522 41.5632 6.01199 44.4619 6.01199Z" fill="white"/>
<path d="M9.88945 53.386L8.70722 57.2093H8.05735L7.14475 54.1744L6.23216 57.2093H5.58228L4.39315 53.386H5.03611L5.90722 56.5953L6.84747 53.386H7.49043L8.40994 56.6023L9.26722 53.386H9.88945Z" fill="white"/>
<path d="M15.5607 53.386L14.3785 57.2093H13.7286L12.816 54.1744L11.9035 57.2093H11.2536L10.0644 53.386H10.7074L11.5785 56.5953L12.5188 53.386H13.1617L14.0812 56.6023L14.9385 53.386H15.5607Z" fill="white"/>
<path d="M21.232 53.386L20.0498 57.2093H19.3999L18.4873 54.1744L17.5748 57.2093H16.9249L15.7357 53.386H16.3787L17.2498 56.5953L18.1901 53.386H18.833L19.7525 56.6023L20.6098 53.386H21.232Z" fill="white"/>
<path d="M22.0569 57.2512C21.9371 57.2512 21.8357 57.2093 21.7527 57.1256C21.6698 57.0419 21.6283 56.9395 21.6283 56.8186C21.6283 56.6977 21.6698 56.5953 21.7527 56.5116C21.8357 56.4279 21.9371 56.386 22.0569 56.386C22.1721 56.386 22.2689 56.4279 22.3473 56.5116C22.4302 56.5953 22.4717 56.6977 22.4717 56.8186C22.4717 56.9395 22.4302 57.0419 22.3473 57.1256C22.2689 57.2093 22.1721 57.2512 22.0569 57.2512Z" fill="white"/>
<path d="M23.9371 54.0907C24.0616 53.8721 24.2459 53.6907 24.4902 53.5465C24.7391 53.3977 25.0272 53.3233 25.3544 53.3233C25.6909 53.3233 25.9951 53.4046 26.267 53.5674C26.5436 53.7302 26.7602 53.9605 26.9169 54.2581C27.0736 54.5512 27.152 54.893 27.152 55.2837C27.152 55.6698 27.0736 56.014 26.9169 56.3163C26.7602 56.6186 26.5436 56.8535 26.267 57.0209C25.9951 57.1884 25.6909 57.2721 25.3544 57.2721C25.0318 57.2721 24.746 57.2 24.4971 57.0558C24.2529 56.907 24.0662 56.7233 23.9371 56.5046V59.0233H23.308V53.386H23.9371V54.0907ZM26.509 55.2837C26.509 54.9953 26.4514 54.7442 26.3362 54.5302C26.2209 54.3163 26.0642 54.1535 25.866 54.0419C25.6724 53.9302 25.4581 53.8744 25.2231 53.8744C24.9926 53.8744 24.7783 53.9326 24.5801 54.0488C24.3865 54.1605 24.2298 54.3256 24.11 54.5442C23.9948 54.7581 23.9371 55.007 23.9371 55.2907C23.9371 55.5791 23.9948 55.8326 24.11 56.0512C24.2298 56.2651 24.3865 56.4302 24.5801 56.5465C24.7783 56.6581 24.9926 56.714 25.2231 56.714C25.4581 56.714 25.6724 56.6581 25.866 56.5465C26.0642 56.4302 26.2209 56.2651 26.3362 56.0512C26.4514 55.8326 26.509 55.5767 26.509 55.2837Z" fill="white"/>
<path d="M31.4369 55.1512C31.4369 55.2721 31.4299 55.4 31.4161 55.5349H28.388C28.411 55.9116 28.5378 56.207 28.7682 56.4209C29.0033 56.6302 29.2867 56.7349 29.6186 56.7349C29.8905 56.7349 30.1164 56.6721 30.2961 56.5465C30.4805 56.4163 30.6095 56.2442 30.6833 56.0302H31.3608C31.2594 56.3977 31.0566 56.6977 30.7524 56.9302C30.4482 57.1581 30.0703 57.2721 29.6186 57.2721C29.2591 57.2721 28.9364 57.1907 28.6507 57.0279C28.3695 56.8651 28.1483 56.6349 27.987 56.3372C27.8257 56.0349 27.745 55.686 27.745 55.2907C27.745 54.8953 27.8234 54.5488 27.9801 54.2512C28.1368 53.9535 28.3557 53.7256 28.6369 53.5674C28.9226 53.4046 29.2499 53.3233 29.6186 53.3233C29.9781 53.3233 30.2961 53.4023 30.5727 53.5605C30.8492 53.7186 31.0612 53.9372 31.2087 54.2163C31.3608 54.4907 31.4369 54.8023 31.4369 55.1512ZM30.787 55.0186C30.787 54.7767 30.734 54.5698 30.628 54.3977C30.522 54.2209 30.3768 54.0884 30.1924 54C30.0127 53.907 29.8122 53.8605 29.5909 53.8605C29.2729 53.8605 29.001 53.9628 28.7751 54.1674C28.5539 54.3721 28.4271 54.6558 28.3949 55.0186H30.787Z" fill="white"/>
<path d="M33.8298 53.3233C34.157 53.3233 34.4428 53.3953 34.6871 53.5395C34.9359 53.6837 35.1203 53.8651 35.2401 54.0837V53.386H35.8762V57.293C35.8762 57.6419 35.8024 57.9512 35.655 58.2209C35.5075 58.4953 35.2954 58.7093 35.0189 58.8628C34.747 59.0163 34.4289 59.093 34.0648 59.093C33.5671 59.093 33.1522 58.9744 32.8204 58.7372C32.4885 58.5 32.2927 58.1767 32.2327 57.7674H32.855C32.9241 58 33.067 58.186 33.2836 58.3256C33.5002 58.4698 33.7606 58.5419 34.0648 58.5419C34.4105 58.5419 34.6917 58.4326 34.9083 58.214C35.1295 57.9953 35.2401 57.6884 35.2401 57.293V56.4907C35.1157 56.714 34.9313 56.9 34.6871 57.0488C34.4428 57.1977 34.157 57.2721 33.8298 57.2721C33.4933 57.2721 33.1868 57.1884 32.9103 57.0209C32.6383 56.8535 32.424 56.6186 32.2673 56.3163C32.1106 56.014 32.0322 55.6698 32.0322 55.2837C32.0322 54.893 32.1106 54.5512 32.2673 54.2581C32.424 53.9605 32.6383 53.7302 32.9103 53.5674C33.1868 53.4046 33.4933 53.3233 33.8298 53.3233ZM35.2401 55.2907C35.2401 55.0023 35.1825 54.7512 35.0673 54.5372C34.9521 54.3233 34.7954 54.1605 34.5972 54.0488C34.4036 53.9326 34.1893 53.8744 33.9542 53.8744C33.7192 53.8744 33.5048 53.9302 33.3112 54.0419C33.1177 54.1535 32.9633 54.3163 32.848 54.5302C32.7328 54.7442 32.6752 54.9953 32.6752 55.2837C32.6752 55.5767 32.7328 55.8326 32.848 56.0512C32.9633 56.2651 33.1177 56.4302 33.3112 56.5465C33.5048 56.6581 33.7192 56.714 33.9542 56.714C34.1893 56.714 34.4036 56.6581 34.5972 56.5465C34.7954 56.4302 34.9521 56.2651 35.0673 56.0512C35.1825 55.8326 35.2401 55.5791 35.2401 55.2907Z" fill="white"/>
<path d="M37.2643 52.7651C37.1445 52.7651 37.0431 52.7233 36.9601 52.6395C36.8771 52.5558 36.8357 52.4535 36.8357 52.3326C36.8357 52.2116 36.8771 52.1093 36.9601 52.0256C37.0431 51.9419 37.1445 51.9 37.2643 51.9C37.3795 51.9 37.4763 51.9419 37.5547 52.0256C37.6376 52.1093 37.6791 52.2116 37.6791 52.3326C37.6791 52.4535 37.6376 52.5558 37.5547 52.6395C37.4763 52.7233 37.3795 52.7651 37.2643 52.7651ZM37.5685 53.386V57.2093H36.9394V53.386H37.5685Z" fill="white"/>
<path d="M38.8413 57.2512C38.7214 57.2512 38.62 57.2093 38.5371 57.1256C38.4541 57.0419 38.4126 56.9395 38.4126 56.8186C38.4126 56.6977 38.4541 56.5953 38.5371 56.5116C38.62 56.4279 38.7214 56.386 38.8413 56.386C38.9565 56.386 39.0533 56.4279 39.1316 56.5116C39.2146 56.5953 39.2561 56.6977 39.2561 56.8186C39.2561 56.9395 39.2146 57.0419 39.1316 57.1256C39.0533 57.2093 38.9565 57.2512 38.8413 57.2512Z" fill="white"/>
<path d="M40.4173 52.7651C40.2974 52.7651 40.196 52.7233 40.1131 52.6395C40.0301 52.5558 39.9886 52.4535 39.9886 52.3326C39.9886 52.2116 40.0301 52.1093 40.1131 52.0256C40.196 51.9419 40.2974 51.9 40.4173 51.9C40.5325 51.9 40.6293 51.9419 40.7076 52.0256C40.7906 52.1093 40.8321 52.2116 40.8321 52.3326C40.8321 52.4535 40.7906 52.5558 40.7076 52.6395C40.6293 52.7233 40.5325 52.7651 40.4173 52.7651ZM40.7215 53.386V57.2093H40.0923V53.386H40.7215Z" fill="white"/>
<path d="M43.6397 53.3163C44.1006 53.3163 44.4739 53.4581 44.7597 53.7419C45.0454 54.0209 45.1883 54.4256 45.1883 54.9558V57.2093H44.5661V55.0465C44.5661 54.6651 44.4716 54.3744 44.2826 54.1744C44.0936 53.9698 43.8355 53.8674 43.5083 53.8674C43.1764 53.8674 42.9114 53.9721 42.7132 54.1814C42.5197 54.3907 42.4229 54.6953 42.4229 55.0953V57.2093H41.7937V53.386H42.4229V53.9302C42.5473 53.7349 42.7155 53.5837 42.9276 53.4767C43.1442 53.3698 43.3815 53.3163 43.6397 53.3163Z" fill="white"/>
<path d="M47.7577 53.9093H46.9627V57.2093H46.3335V53.9093H45.8427V53.386H46.3335V53.1139C46.3335 52.686 46.4418 52.3744 46.6585 52.1791C46.8797 51.9791 47.2323 51.8791 47.7162 51.8791V52.4093C47.4397 52.4093 47.2438 52.4651 47.1286 52.5767C47.018 52.6837 46.9627 52.8628 46.9627 53.1139V53.386H47.7577V53.9093Z" fill="white"/>
<path d="M50.1436 57.2721C49.7887 57.2721 49.4661 57.1907 49.1757 57.0279C48.8899 56.8651 48.6641 56.6349 48.4982 56.3372C48.3369 56.0349 48.2562 55.686 48.2562 55.2907C48.2562 54.9 48.3392 54.5558 48.5051 54.2581C48.6756 53.9558 48.9061 53.7256 49.1964 53.5674C49.4868 53.4046 49.8117 53.3233 50.1713 53.3233C50.5308 53.3233 50.8557 53.4046 51.1461 53.5674C51.4364 53.7256 51.6646 53.9535 51.8305 54.2512C52.0011 54.5488 52.0863 54.8953 52.0863 55.2907C52.0863 55.686 51.9987 56.0349 51.8236 56.3372C51.6531 56.6349 51.4203 56.8651 51.1253 57.0279C50.8304 57.1907 50.5031 57.2721 50.1436 57.2721ZM50.1436 56.714C50.3694 56.714 50.5815 56.6605 50.7797 56.5535C50.9778 56.4465 51.1369 56.286 51.2567 56.0721C51.3811 55.8581 51.4434 55.5977 51.4434 55.2907C51.4434 54.9837 51.3834 54.7233 51.2636 54.5093C51.1438 54.2953 50.9871 54.1372 50.7935 54.0349C50.5999 53.9279 50.3902 53.8744 50.1643 53.8744C49.9339 53.8744 49.7219 53.9279 49.5283 54.0349C49.3393 54.1372 49.1872 54.2953 49.072 54.5093C48.9568 54.7233 48.8992 54.9837 48.8992 55.2907C48.8992 55.6023 48.9545 55.8651 49.0651 56.0791C49.1803 56.293 49.3324 56.4535 49.5214 56.5605C49.7104 56.6628 49.9178 56.714 50.1436 56.714Z" fill="white"/>
</svg>
