<svg width="24" height="24" viewBox="0 0 24 24" fill="none" xmlns="http://www.w3.org/2000/svg">
<path d="M3 0H0V24H3V0Z" fill="#CDD7DE"/>
<path d="M9 9H6V12H9V9Z" fill="#CDD7DE"/>
<path d="M12 9H9V12H12V9Z" fill="#CDD7DE"/>
<path d="M15 12H12V15H15V12Z" fill="#CDD7DE"/>
<path d="M18 12H15V15H18V12Z" fill="#CDD7DE"/>
<path d="M21 12H18V15H21V12Z" fill="#CDD7DE"/>
<path d="M21 9H18V12H21V9Z" fill="#CDD7DE"/>
<path d="M21 6H18V9H21V6Z" fill="#CDD7DE"/>
<path d="M21 3H18V6H21V3Z" fill="#CDD7DE"/>
<path d="M18 3H15V6H18V3Z" fill="#CDD7DE"/>
<path d="M6 9H3V12H6V9Z" fill="#CDD7DE"/>
<path d="M6 0H3V3H6V0Z" fill="#CDD7DE"/>
<path d="M9 0H6V3H9V0Z" fill="#CDD7DE"/>
<path d="M12 0H9V3H12V0Z" fill="#CDD7DE"/>
<path d="M15 3H12V6H15V3Z" fill="#CDD7DE"/>
</svg>
